G04 #@! TF.GenerationSoftware,KiCad,Pcbnew,(5.1.2)-2*
G04 #@! TF.CreationDate,2020-04-18T03:55:00-07:00*
G04 #@! TF.ProjectId,eurorackPower10pin,6575726f-7261-4636-9b50-6f7765723130,rev?*
G04 #@! TF.SameCoordinates,Original*
G04 #@! TF.FileFunction,Copper,L1,Top*
G04 #@! TF.FilePolarity,Positive*
%FSLAX46Y46*%
G04 Gerber Fmt 4.6, Leading zero omitted, Abs format (unit mm)*
G04 Created by KiCad (PCBNEW (5.1.2)-2) date 2020-04-18 03:55:00*
%MOMM*%
%LPD*%
G04 APERTURE LIST*
%ADD10O,1.727200X1.727200*%
%ADD11R,1.727200X1.727200*%
%ADD12O,1.600000X1.600000*%
%ADD13C,1.600000*%
%ADD14R,1.700000X1.700000*%
%ADD15O,1.700000X1.700000*%
%ADD16C,1.800000*%
%ADD17R,1.800000X1.800000*%
%ADD18R,1.600000X1.600000*%
%ADD19C,0.508000*%
%ADD20C,0.250000*%
%ADD21C,0.254000*%
G04 APERTURE END LIST*
D10*
X0Y-13335000D03*
X2540000Y-13335000D03*
X0Y-15875000D03*
X2540000Y-15875000D03*
X0Y-18415000D03*
X2540000Y-18415000D03*
X0Y-20955000D03*
X2540000Y-20955000D03*
X0Y-23495000D03*
D11*
X2540000Y-23495000D03*
D12*
X6604000Y-13208000D03*
D13*
X6604000Y-5588000D03*
D12*
X3810000Y-40640000D03*
D13*
X3810000Y-33020000D03*
D14*
X10160000Y-44450000D03*
D15*
X10160000Y-46990000D03*
X10160000Y-2540000D03*
D14*
X10160000Y0D03*
X0Y-44450000D03*
D15*
X0Y-46990000D03*
X-7640000Y-32890000D03*
X-5100000Y-32890000D03*
D14*
X-2560000Y-32890000D03*
D15*
X0Y-2540000D03*
D14*
X0Y0D03*
D15*
X-2555000Y-38540000D03*
X-5095000Y-38540000D03*
D14*
X-7635000Y-38540000D03*
D16*
X5080000Y-44450000D03*
D17*
X5080000Y-46990000D03*
D16*
X5080000Y-2540000D03*
D17*
X5080000Y0D03*
D13*
X8890000Y-28535000D03*
D18*
X8890000Y-26035000D03*
D13*
X8890000Y-20915000D03*
D18*
X8890000Y-18415000D03*
D19*
X0Y-13335000D02*
X2540000Y-13335000D01*
X2540000Y-13373000D02*
X2540000Y-13335000D01*
X7582000Y-18415000D02*
X2540000Y-13373000D01*
X8890000Y-18415000D02*
X7582000Y-18415000D01*
X-5000Y-13330000D02*
X0Y-13335000D01*
X-3120000Y-13330000D02*
X-5000Y-13330000D01*
X-5060000Y-15270000D02*
X-3120000Y-13330000D01*
X-5100000Y-32890000D02*
X-5060000Y-32850000D01*
X-5060000Y-32850000D02*
X-5060000Y-15270000D01*
X2540000Y-24866600D02*
X2540000Y-23495000D01*
X6208400Y-28535000D02*
X2540000Y-24866600D01*
X8890000Y-28535000D02*
X6208400Y-28535000D01*
X0Y-23495000D02*
X2540000Y-23495000D01*
X8890000Y-29666370D02*
X8890000Y-28535000D01*
X8890000Y-31496000D02*
X8890000Y-29666370D01*
X3446000Y-36940000D02*
X8890000Y-31496000D01*
X-5095000Y-38540000D02*
X-3495000Y-36940000D01*
X-3495000Y-36940000D02*
X3446000Y-36940000D01*
D20*
X5080000Y-4064000D02*
X5080000Y-2540000D01*
X6604000Y-5588000D02*
X5080000Y-4064000D01*
D19*
X5080000Y0D02*
X0Y0D01*
X6488000Y0D02*
X10160000Y0D01*
X5080000Y0D02*
X6488000Y0D01*
X8802000Y-44450000D02*
X10160000Y-44450000D01*
X7024000Y-42672000D02*
X8802000Y-44450000D01*
X3136000Y-42672000D02*
X7024000Y-42672000D01*
X0Y-44450000D02*
X1358000Y-44450000D01*
X1358000Y-44450000D02*
X3136000Y-42672000D01*
D21*
G36*
X12040001Y-48870000D02*
G01*
X-9500000Y-48870000D01*
X-9500000Y-47346890D01*
X-1441476Y-47346890D01*
X-1396825Y-47494099D01*
X-1271641Y-47756920D01*
X-1097588Y-47990269D01*
X-881355Y-48185178D01*
X-631252Y-48334157D01*
X-356891Y-48431481D01*
X-127000Y-48310814D01*
X-127000Y-47117000D01*
X127000Y-47117000D01*
X127000Y-48310814D01*
X356891Y-48431481D01*
X631252Y-48334157D01*
X881355Y-48185178D01*
X1097588Y-47990269D01*
X1172377Y-47890000D01*
X3541928Y-47890000D01*
X3554188Y-48014482D01*
X3590498Y-48134180D01*
X3649463Y-48244494D01*
X3728815Y-48341185D01*
X3825506Y-48420537D01*
X3935820Y-48479502D01*
X4055518Y-48515812D01*
X4180000Y-48528072D01*
X4794250Y-48525000D01*
X4953000Y-48366250D01*
X4953000Y-47117000D01*
X5207000Y-47117000D01*
X5207000Y-48366250D01*
X5365750Y-48525000D01*
X5980000Y-48528072D01*
X6104482Y-48515812D01*
X6224180Y-48479502D01*
X6334494Y-48420537D01*
X6431185Y-48341185D01*
X6510537Y-48244494D01*
X6569502Y-48134180D01*
X6605812Y-48014482D01*
X6618072Y-47890000D01*
X6615356Y-47346890D01*
X8718524Y-47346890D01*
X8763175Y-47494099D01*
X8888359Y-47756920D01*
X9062412Y-47990269D01*
X9278645Y-48185178D01*
X9528748Y-48334157D01*
X9803109Y-48431481D01*
X10033000Y-48310814D01*
X10033000Y-47117000D01*
X10287000Y-47117000D01*
X10287000Y-48310814D01*
X10516891Y-48431481D01*
X10791252Y-48334157D01*
X11041355Y-48185178D01*
X11257588Y-47990269D01*
X11431641Y-47756920D01*
X11556825Y-47494099D01*
X11601476Y-47346890D01*
X11480155Y-47117000D01*
X10287000Y-47117000D01*
X10033000Y-47117000D01*
X8839845Y-47117000D01*
X8718524Y-47346890D01*
X6615356Y-47346890D01*
X6615000Y-47275750D01*
X6456250Y-47117000D01*
X5207000Y-47117000D01*
X4953000Y-47117000D01*
X3703750Y-47117000D01*
X3545000Y-47275750D01*
X3541928Y-47890000D01*
X1172377Y-47890000D01*
X1271641Y-47756920D01*
X1396825Y-47494099D01*
X1441476Y-47346890D01*
X1320155Y-47117000D01*
X127000Y-47117000D01*
X-127000Y-47117000D01*
X-1320155Y-47117000D01*
X-1441476Y-47346890D01*
X-9500000Y-47346890D01*
X-9500000Y-43600000D01*
X-1488072Y-43600000D01*
X-1488072Y-45300000D01*
X-1475812Y-45424482D01*
X-1439502Y-45544180D01*
X-1380537Y-45654494D01*
X-1301185Y-45751185D01*
X-1204494Y-45830537D01*
X-1094180Y-45889502D01*
X-1013534Y-45913966D01*
X-1097588Y-45989731D01*
X-1271641Y-46223080D01*
X-1396825Y-46485901D01*
X-1441476Y-46633110D01*
X-1320155Y-46863000D01*
X-127000Y-46863000D01*
X-127000Y-46843000D01*
X127000Y-46843000D01*
X127000Y-46863000D01*
X1320155Y-46863000D01*
X1441476Y-46633110D01*
X1396825Y-46485901D01*
X1271641Y-46223080D01*
X1097588Y-45989731D01*
X1013534Y-45913966D01*
X1094180Y-45889502D01*
X1204494Y-45830537D01*
X1301185Y-45751185D01*
X1380537Y-45654494D01*
X1439502Y-45544180D01*
X1475812Y-45424482D01*
X1485040Y-45330788D01*
X1532274Y-45326136D01*
X1699851Y-45275303D01*
X1854291Y-45192753D01*
X1989659Y-45081659D01*
X2017499Y-45047736D01*
X3504236Y-43561000D01*
X3827883Y-43561000D01*
X3719701Y-43722905D01*
X3603989Y-44002257D01*
X3545000Y-44298816D01*
X3545000Y-44601184D01*
X3603989Y-44897743D01*
X3719701Y-45177095D01*
X3887688Y-45428505D01*
X3954127Y-45494944D01*
X3935820Y-45500498D01*
X3825506Y-45559463D01*
X3728815Y-45638815D01*
X3649463Y-45735506D01*
X3590498Y-45845820D01*
X3554188Y-45965518D01*
X3541928Y-46090000D01*
X3545000Y-46704250D01*
X3703750Y-46863000D01*
X4953000Y-46863000D01*
X4953000Y-46843000D01*
X5207000Y-46843000D01*
X5207000Y-46863000D01*
X6456250Y-46863000D01*
X6615000Y-46704250D01*
X6618072Y-46090000D01*
X6605812Y-45965518D01*
X6569502Y-45845820D01*
X6510537Y-45735506D01*
X6431185Y-45638815D01*
X6334494Y-45559463D01*
X6224180Y-45500498D01*
X6205873Y-45494944D01*
X6272312Y-45428505D01*
X6440299Y-45177095D01*
X6556011Y-44897743D01*
X6615000Y-44601184D01*
X6615000Y-44298816D01*
X6556011Y-44002257D01*
X6440299Y-43722905D01*
X6332117Y-43561000D01*
X6655765Y-43561000D01*
X8142506Y-45047742D01*
X8170341Y-45081659D01*
X8305709Y-45192753D01*
X8460149Y-45275303D01*
X8541566Y-45300000D01*
X8627725Y-45326136D01*
X8644325Y-45327771D01*
X8674960Y-45330788D01*
X8684188Y-45424482D01*
X8720498Y-45544180D01*
X8779463Y-45654494D01*
X8858815Y-45751185D01*
X8955506Y-45830537D01*
X9065820Y-45889502D01*
X9146466Y-45913966D01*
X9062412Y-45989731D01*
X8888359Y-46223080D01*
X8763175Y-46485901D01*
X8718524Y-46633110D01*
X8839845Y-46863000D01*
X10033000Y-46863000D01*
X10033000Y-46843000D01*
X10287000Y-46843000D01*
X10287000Y-46863000D01*
X11480155Y-46863000D01*
X11601476Y-46633110D01*
X11556825Y-46485901D01*
X11431641Y-46223080D01*
X11257588Y-45989731D01*
X11173534Y-45913966D01*
X11254180Y-45889502D01*
X11364494Y-45830537D01*
X11461185Y-45751185D01*
X11540537Y-45654494D01*
X11599502Y-45544180D01*
X11635812Y-45424482D01*
X11648072Y-45300000D01*
X11648072Y-43600000D01*
X11635812Y-43475518D01*
X11599502Y-43355820D01*
X11540537Y-43245506D01*
X11461185Y-43148815D01*
X11364494Y-43069463D01*
X11254180Y-43010498D01*
X11134482Y-42974188D01*
X11010000Y-42961928D01*
X9310000Y-42961928D01*
X9185518Y-42974188D01*
X9065820Y-43010498D01*
X8955506Y-43069463D01*
X8858815Y-43148815D01*
X8813395Y-43204159D01*
X7683499Y-42074264D01*
X7655659Y-42040341D01*
X7520291Y-41929247D01*
X7365851Y-41846697D01*
X7198274Y-41795864D01*
X7067667Y-41783000D01*
X7067660Y-41783000D01*
X7024000Y-41778700D01*
X6980340Y-41783000D01*
X4679254Y-41783000D01*
X4829608Y-41659608D01*
X5008932Y-41441101D01*
X5142182Y-41191808D01*
X5224236Y-40921309D01*
X5251943Y-40640000D01*
X5224236Y-40358691D01*
X5142182Y-40088192D01*
X5008932Y-39838899D01*
X4829608Y-39620392D01*
X4611101Y-39441068D01*
X4361808Y-39307818D01*
X4091309Y-39225764D01*
X3880492Y-39205000D01*
X3739508Y-39205000D01*
X3528691Y-39225764D01*
X3258192Y-39307818D01*
X3008899Y-39441068D01*
X2790392Y-39620392D01*
X2611068Y-39838899D01*
X2477818Y-40088192D01*
X2395764Y-40358691D01*
X2368057Y-40640000D01*
X2395764Y-40921309D01*
X2477818Y-41191808D01*
X2611068Y-41441101D01*
X2790392Y-41659608D01*
X2957852Y-41797039D01*
X2910892Y-41811284D01*
X2794149Y-41846697D01*
X2639709Y-41929247D01*
X2504341Y-42040341D01*
X2476506Y-42074258D01*
X1346605Y-43204160D01*
X1301185Y-43148815D01*
X1204494Y-43069463D01*
X1094180Y-43010498D01*
X974482Y-42974188D01*
X850000Y-42961928D01*
X-850000Y-42961928D01*
X-974482Y-42974188D01*
X-1094180Y-43010498D01*
X-1204494Y-43069463D01*
X-1301185Y-43148815D01*
X-1380537Y-43245506D01*
X-1439502Y-43355820D01*
X-1475812Y-43475518D01*
X-1488072Y-43600000D01*
X-9500000Y-43600000D01*
X-9500000Y-37690000D01*
X-9123072Y-37690000D01*
X-9123072Y-39390000D01*
X-9110812Y-39514482D01*
X-9074502Y-39634180D01*
X-9015537Y-39744494D01*
X-8936185Y-39841185D01*
X-8839494Y-39920537D01*
X-8729180Y-39979502D01*
X-8609482Y-40015812D01*
X-8485000Y-40028072D01*
X-6785000Y-40028072D01*
X-6660518Y-40015812D01*
X-6540820Y-39979502D01*
X-6430506Y-39920537D01*
X-6333815Y-39841185D01*
X-6254463Y-39744494D01*
X-6195498Y-39634180D01*
X-6174607Y-39565313D01*
X-6150134Y-39595134D01*
X-5924014Y-39780706D01*
X-5666034Y-39918599D01*
X-5386111Y-40003513D01*
X-5167950Y-40025000D01*
X-5022050Y-40025000D01*
X-4803889Y-40003513D01*
X-4523966Y-39918599D01*
X-4265986Y-39780706D01*
X-4039866Y-39595134D01*
X-3854294Y-39369014D01*
X-3825000Y-39314209D01*
X-3795706Y-39369014D01*
X-3610134Y-39595134D01*
X-3384014Y-39780706D01*
X-3126034Y-39918599D01*
X-2846111Y-40003513D01*
X-2627950Y-40025000D01*
X-2482050Y-40025000D01*
X-2263889Y-40003513D01*
X-1983966Y-39918599D01*
X-1725986Y-39780706D01*
X-1499866Y-39595134D01*
X-1314294Y-39369014D01*
X-1176401Y-39111034D01*
X-1091487Y-38831111D01*
X-1062815Y-38540000D01*
X-1091487Y-38248889D01*
X-1176401Y-37968966D01*
X-1251214Y-37829000D01*
X3402340Y-37829000D01*
X3446000Y-37833300D01*
X3489660Y-37829000D01*
X3489667Y-37829000D01*
X3620274Y-37816136D01*
X3787851Y-37765303D01*
X3942291Y-37682753D01*
X4077659Y-37571659D01*
X4105499Y-37537736D01*
X9487743Y-32155493D01*
X9521659Y-32127659D01*
X9632753Y-31992291D01*
X9715303Y-31837851D01*
X9766136Y-31670274D01*
X9779000Y-31539667D01*
X9779000Y-31539660D01*
X9783300Y-31496000D01*
X9779000Y-31452340D01*
X9779000Y-29666849D01*
X9804759Y-29649637D01*
X10004637Y-29449759D01*
X10161680Y-29214727D01*
X10269853Y-28953574D01*
X10325000Y-28676335D01*
X10325000Y-28393665D01*
X10269853Y-28116426D01*
X10161680Y-27855273D01*
X10004637Y-27620241D01*
X9838057Y-27453661D01*
X9934180Y-27424502D01*
X10044494Y-27365537D01*
X10141185Y-27286185D01*
X10220537Y-27189494D01*
X10279502Y-27079180D01*
X10315812Y-26959482D01*
X10328072Y-26835000D01*
X10325000Y-26320750D01*
X10166250Y-26162000D01*
X9017000Y-26162000D01*
X9017000Y-26182000D01*
X8763000Y-26182000D01*
X8763000Y-26162000D01*
X7613750Y-26162000D01*
X7455000Y-26320750D01*
X7451928Y-26835000D01*
X7464188Y-26959482D01*
X7500498Y-27079180D01*
X7559463Y-27189494D01*
X7638815Y-27286185D01*
X7735506Y-27365537D01*
X7845820Y-27424502D01*
X7941943Y-27453661D01*
X7775363Y-27620241D01*
X7758151Y-27646000D01*
X6576636Y-27646000D01*
X4165636Y-25235000D01*
X7451928Y-25235000D01*
X7455000Y-25749250D01*
X7613750Y-25908000D01*
X8763000Y-25908000D01*
X8763000Y-24758750D01*
X9017000Y-24758750D01*
X9017000Y-25908000D01*
X10166250Y-25908000D01*
X10325000Y-25749250D01*
X10328072Y-25235000D01*
X10315812Y-25110518D01*
X10279502Y-24990820D01*
X10220537Y-24880506D01*
X10141185Y-24783815D01*
X10044494Y-24704463D01*
X9934180Y-24645498D01*
X9814482Y-24609188D01*
X9690000Y-24596928D01*
X9175750Y-24600000D01*
X9017000Y-24758750D01*
X8763000Y-24758750D01*
X8604250Y-24600000D01*
X8090000Y-24596928D01*
X7965518Y-24609188D01*
X7845820Y-24645498D01*
X7735506Y-24704463D01*
X7638815Y-24783815D01*
X7559463Y-24880506D01*
X7500498Y-24990820D01*
X7464188Y-25110518D01*
X7451928Y-25235000D01*
X4165636Y-25235000D01*
X3791971Y-24861335D01*
X3854785Y-24809785D01*
X3934137Y-24713094D01*
X3993102Y-24602780D01*
X4029412Y-24483082D01*
X4041672Y-24358600D01*
X4041672Y-22631400D01*
X4029412Y-22506918D01*
X3993102Y-22387220D01*
X3934137Y-22276906D01*
X3854785Y-22180215D01*
X3758094Y-22100863D01*
X3647780Y-22041898D01*
X3583426Y-22022376D01*
X3646854Y-21965293D01*
X3689880Y-21907702D01*
X8076903Y-21907702D01*
X8148486Y-22151671D01*
X8403996Y-22272571D01*
X8678184Y-22341300D01*
X8960512Y-22355217D01*
X9240130Y-22313787D01*
X9506292Y-22218603D01*
X9631514Y-22151671D01*
X9703097Y-21907702D01*
X8890000Y-21094605D01*
X8076903Y-21907702D01*
X3689880Y-21907702D01*
X3822684Y-21729944D01*
X3949222Y-21464814D01*
X3994958Y-21314026D01*
X3873817Y-21082000D01*
X2667000Y-21082000D01*
X2667000Y-21102000D01*
X2413000Y-21102000D01*
X2413000Y-21082000D01*
X127000Y-21082000D01*
X127000Y-21102000D01*
X-127000Y-21102000D01*
X-127000Y-21082000D01*
X-1333817Y-21082000D01*
X-1454958Y-21314026D01*
X-1409222Y-21464814D01*
X-1282684Y-21729944D01*
X-1106854Y-21965293D01*
X-888488Y-22161817D01*
X-792090Y-22219137D01*
X-836606Y-22242931D01*
X-1064797Y-22430203D01*
X-1252069Y-22658394D01*
X-1391225Y-22918736D01*
X-1476916Y-23201223D01*
X-1505851Y-23495000D01*
X-1476916Y-23788777D01*
X-1391225Y-24071264D01*
X-1252069Y-24331606D01*
X-1064797Y-24559797D01*
X-836606Y-24747069D01*
X-576264Y-24886225D01*
X-293777Y-24971916D01*
X-73619Y-24993600D01*
X73619Y-24993600D01*
X293777Y-24971916D01*
X576264Y-24886225D01*
X836606Y-24747069D01*
X1064797Y-24559797D01*
X1071414Y-24551735D01*
X1086898Y-24602780D01*
X1145863Y-24713094D01*
X1225215Y-24809785D01*
X1321906Y-24889137D01*
X1432220Y-24948102D01*
X1551918Y-24984412D01*
X1659345Y-24994992D01*
X1663864Y-25040873D01*
X1714697Y-25208450D01*
X1797247Y-25362890D01*
X1908341Y-25498259D01*
X1942264Y-25526099D01*
X5548906Y-29132742D01*
X5576741Y-29166659D01*
X5712109Y-29277753D01*
X5866549Y-29360303D01*
X5961158Y-29389002D01*
X6034125Y-29411136D01*
X6052473Y-29412943D01*
X6164733Y-29424000D01*
X6164739Y-29424000D01*
X6208399Y-29428300D01*
X6252059Y-29424000D01*
X7758151Y-29424000D01*
X7775363Y-29449759D01*
X7975241Y-29649637D01*
X8001000Y-29666849D01*
X8001000Y-29710036D01*
X8001001Y-29710046D01*
X8001000Y-31127764D01*
X3077765Y-36051000D01*
X-3451340Y-36051000D01*
X-3495000Y-36046700D01*
X-3538660Y-36051000D01*
X-3538667Y-36051000D01*
X-3652675Y-36062229D01*
X-3669275Y-36063864D01*
X-3720108Y-36079284D01*
X-3836851Y-36114697D01*
X-3991291Y-36197247D01*
X-4126659Y-36308341D01*
X-4154494Y-36342258D01*
X-4881116Y-37068881D01*
X-5022050Y-37055000D01*
X-5167950Y-37055000D01*
X-5386111Y-37076487D01*
X-5666034Y-37161401D01*
X-5924014Y-37299294D01*
X-6150134Y-37484866D01*
X-6174607Y-37514687D01*
X-6195498Y-37445820D01*
X-6254463Y-37335506D01*
X-6333815Y-37238815D01*
X-6430506Y-37159463D01*
X-6540820Y-37100498D01*
X-6660518Y-37064188D01*
X-6785000Y-37051928D01*
X-8485000Y-37051928D01*
X-8609482Y-37064188D01*
X-8729180Y-37100498D01*
X-8839494Y-37159463D01*
X-8936185Y-37238815D01*
X-9015537Y-37335506D01*
X-9074502Y-37445820D01*
X-9110812Y-37565518D01*
X-9123072Y-37690000D01*
X-9500000Y-37690000D01*
X-9500000Y-32890000D01*
X-9132185Y-32890000D01*
X-9103513Y-33181111D01*
X-9018599Y-33461034D01*
X-8880706Y-33719014D01*
X-8695134Y-33945134D01*
X-8469014Y-34130706D01*
X-8211034Y-34268599D01*
X-7931111Y-34353513D01*
X-7712950Y-34375000D01*
X-7567050Y-34375000D01*
X-7348889Y-34353513D01*
X-7068966Y-34268599D01*
X-6810986Y-34130706D01*
X-6584866Y-33945134D01*
X-6399294Y-33719014D01*
X-6370000Y-33664209D01*
X-6340706Y-33719014D01*
X-6155134Y-33945134D01*
X-5929014Y-34130706D01*
X-5671034Y-34268599D01*
X-5391111Y-34353513D01*
X-5172950Y-34375000D01*
X-5027050Y-34375000D01*
X-4808889Y-34353513D01*
X-4528966Y-34268599D01*
X-4270986Y-34130706D01*
X-4044866Y-33945134D01*
X-4020393Y-33915313D01*
X-3999502Y-33984180D01*
X-3940537Y-34094494D01*
X-3861185Y-34191185D01*
X-3764494Y-34270537D01*
X-3654180Y-34329502D01*
X-3534482Y-34365812D01*
X-3410000Y-34378072D01*
X-1710000Y-34378072D01*
X-1585518Y-34365812D01*
X-1465820Y-34329502D01*
X-1355506Y-34270537D01*
X-1258815Y-34191185D01*
X-1179463Y-34094494D01*
X-1120498Y-33984180D01*
X-1084188Y-33864482D01*
X-1071928Y-33740000D01*
X-1071928Y-32878665D01*
X2375000Y-32878665D01*
X2375000Y-33161335D01*
X2430147Y-33438574D01*
X2538320Y-33699727D01*
X2695363Y-33934759D01*
X2895241Y-34134637D01*
X3130273Y-34291680D01*
X3391426Y-34399853D01*
X3668665Y-34455000D01*
X3951335Y-34455000D01*
X4228574Y-34399853D01*
X4489727Y-34291680D01*
X4724759Y-34134637D01*
X4924637Y-33934759D01*
X5081680Y-33699727D01*
X5189853Y-33438574D01*
X5245000Y-33161335D01*
X5245000Y-32878665D01*
X5189853Y-32601426D01*
X5081680Y-32340273D01*
X4924637Y-32105241D01*
X4724759Y-31905363D01*
X4489727Y-31748320D01*
X4228574Y-31640147D01*
X3951335Y-31585000D01*
X3668665Y-31585000D01*
X3391426Y-31640147D01*
X3130273Y-31748320D01*
X2895241Y-31905363D01*
X2695363Y-32105241D01*
X2538320Y-32340273D01*
X2430147Y-32601426D01*
X2375000Y-32878665D01*
X-1071928Y-32878665D01*
X-1071928Y-32040000D01*
X-1084188Y-31915518D01*
X-1120498Y-31795820D01*
X-1179463Y-31685506D01*
X-1258815Y-31588815D01*
X-1355506Y-31509463D01*
X-1465820Y-31450498D01*
X-1585518Y-31414188D01*
X-1710000Y-31401928D01*
X-3410000Y-31401928D01*
X-3534482Y-31414188D01*
X-3654180Y-31450498D01*
X-3764494Y-31509463D01*
X-3861185Y-31588815D01*
X-3940537Y-31685506D01*
X-3999502Y-31795820D01*
X-4020393Y-31864687D01*
X-4044866Y-31834866D01*
X-4171000Y-31731350D01*
X-4171000Y-20985512D01*
X7449783Y-20985512D01*
X7491213Y-21265130D01*
X7586397Y-21531292D01*
X7653329Y-21656514D01*
X7897298Y-21728097D01*
X8710395Y-20915000D01*
X9069605Y-20915000D01*
X9882702Y-21728097D01*
X10126671Y-21656514D01*
X10247571Y-21401004D01*
X10316300Y-21126816D01*
X10330217Y-20844488D01*
X10288787Y-20564870D01*
X10193603Y-20298708D01*
X10126671Y-20173486D01*
X9882702Y-20101903D01*
X9069605Y-20915000D01*
X8710395Y-20915000D01*
X7897298Y-20101903D01*
X7653329Y-20173486D01*
X7532429Y-20428996D01*
X7463700Y-20703184D01*
X7449783Y-20985512D01*
X-4171000Y-20985512D01*
X-4171000Y-18774026D01*
X-1454958Y-18774026D01*
X-1409222Y-18924814D01*
X-1282684Y-19189944D01*
X-1106854Y-19425293D01*
X-888488Y-19621817D01*
X-782230Y-19685000D01*
X-888488Y-19748183D01*
X-1106854Y-19944707D01*
X-1282684Y-20180056D01*
X-1409222Y-20445186D01*
X-1454958Y-20595974D01*
X-1333817Y-20828000D01*
X-127000Y-20828000D01*
X-127000Y-18542000D01*
X127000Y-18542000D01*
X127000Y-20828000D01*
X2413000Y-20828000D01*
X2413000Y-18542000D01*
X2667000Y-18542000D01*
X2667000Y-20828000D01*
X3873817Y-20828000D01*
X3994958Y-20595974D01*
X3949222Y-20445186D01*
X3822684Y-20180056D01*
X3646854Y-19944707D01*
X3428488Y-19748183D01*
X3322230Y-19685000D01*
X3428488Y-19621817D01*
X3646854Y-19425293D01*
X3822684Y-19189944D01*
X3949222Y-18924814D01*
X3994958Y-18774026D01*
X3873817Y-18542000D01*
X2667000Y-18542000D01*
X2413000Y-18542000D01*
X127000Y-18542000D01*
X-127000Y-18542000D01*
X-1333817Y-18542000D01*
X-1454958Y-18774026D01*
X-4171000Y-18774026D01*
X-4171000Y-16234026D01*
X-1454958Y-16234026D01*
X-1409222Y-16384814D01*
X-1282684Y-16649944D01*
X-1106854Y-16885293D01*
X-888488Y-17081817D01*
X-782230Y-17145000D01*
X-888488Y-17208183D01*
X-1106854Y-17404707D01*
X-1282684Y-17640056D01*
X-1409222Y-17905186D01*
X-1454958Y-18055974D01*
X-1333817Y-18288000D01*
X-127000Y-18288000D01*
X-127000Y-16002000D01*
X127000Y-16002000D01*
X127000Y-18288000D01*
X2413000Y-18288000D01*
X2413000Y-16002000D01*
X127000Y-16002000D01*
X-127000Y-16002000D01*
X-1333817Y-16002000D01*
X-1454958Y-16234026D01*
X-4171000Y-16234026D01*
X-4171000Y-15638235D01*
X-2751765Y-14219000D01*
X-1213174Y-14219000D01*
X-1064797Y-14399797D01*
X-836606Y-14587069D01*
X-792090Y-14610863D01*
X-888488Y-14668183D01*
X-1106854Y-14864707D01*
X-1282684Y-15100056D01*
X-1409222Y-15365186D01*
X-1454958Y-15515974D01*
X-1333817Y-15748000D01*
X-127000Y-15748000D01*
X-127000Y-15728000D01*
X127000Y-15728000D01*
X127000Y-15748000D01*
X2413000Y-15748000D01*
X2413000Y-15728000D01*
X2667000Y-15728000D01*
X2667000Y-15748000D01*
X2687000Y-15748000D01*
X2687000Y-16002000D01*
X2667000Y-16002000D01*
X2667000Y-18288000D01*
X3873817Y-18288000D01*
X3994958Y-18055974D01*
X3949222Y-17905186D01*
X3822684Y-17640056D01*
X3646854Y-17404707D01*
X3428488Y-17208183D01*
X3322230Y-17145000D01*
X3428488Y-17081817D01*
X3646854Y-16885293D01*
X3822684Y-16649944D01*
X3949222Y-16384814D01*
X3994958Y-16234026D01*
X3873818Y-16002002D01*
X3911767Y-16002002D01*
X6922506Y-19012742D01*
X6950341Y-19046659D01*
X7085709Y-19157753D01*
X7240149Y-19240303D01*
X7334758Y-19269002D01*
X7407725Y-19291136D01*
X7424325Y-19292771D01*
X7459933Y-19296278D01*
X7464188Y-19339482D01*
X7500498Y-19459180D01*
X7559463Y-19569494D01*
X7638815Y-19666185D01*
X7735506Y-19745537D01*
X7845820Y-19804502D01*
X7965518Y-19840812D01*
X8090000Y-19853072D01*
X8097215Y-19853072D01*
X8076903Y-19922298D01*
X8890000Y-20735395D01*
X9703097Y-19922298D01*
X9682785Y-19853072D01*
X9690000Y-19853072D01*
X9814482Y-19840812D01*
X9934180Y-19804502D01*
X10044494Y-19745537D01*
X10141185Y-19666185D01*
X10220537Y-19569494D01*
X10279502Y-19459180D01*
X10315812Y-19339482D01*
X10328072Y-19215000D01*
X10328072Y-17615000D01*
X10315812Y-17490518D01*
X10279502Y-17370820D01*
X10220537Y-17260506D01*
X10141185Y-17163815D01*
X10044494Y-17084463D01*
X9934180Y-17025498D01*
X9814482Y-16989188D01*
X9690000Y-16976928D01*
X8090000Y-16976928D01*
X7965518Y-16989188D01*
X7845820Y-17025498D01*
X7735506Y-17084463D01*
X7638815Y-17163815D01*
X7615933Y-17191697D01*
X4020152Y-13595917D01*
X4023981Y-13557040D01*
X5212091Y-13557040D01*
X5306930Y-13821881D01*
X5451615Y-14063131D01*
X5640586Y-14271519D01*
X5866580Y-14439037D01*
X6120913Y-14559246D01*
X6254961Y-14599904D01*
X6477000Y-14477915D01*
X6477000Y-13335000D01*
X6731000Y-13335000D01*
X6731000Y-14477915D01*
X6953039Y-14599904D01*
X7087087Y-14559246D01*
X7341420Y-14439037D01*
X7567414Y-14271519D01*
X7756385Y-14063131D01*
X7901070Y-13821881D01*
X7995909Y-13557040D01*
X7874624Y-13335000D01*
X6731000Y-13335000D01*
X6477000Y-13335000D01*
X5333376Y-13335000D01*
X5212091Y-13557040D01*
X4023981Y-13557040D01*
X4045851Y-13335000D01*
X4016916Y-13041223D01*
X3961628Y-12858960D01*
X5212091Y-12858960D01*
X5333376Y-13081000D01*
X6477000Y-13081000D01*
X6477000Y-11938085D01*
X6731000Y-11938085D01*
X6731000Y-13081000D01*
X7874624Y-13081000D01*
X7995909Y-12858960D01*
X7901070Y-12594119D01*
X7756385Y-12352869D01*
X7567414Y-12144481D01*
X7341420Y-11976963D01*
X7087087Y-11856754D01*
X6953039Y-11816096D01*
X6731000Y-11938085D01*
X6477000Y-11938085D01*
X6254961Y-11816096D01*
X6120913Y-11856754D01*
X5866580Y-11976963D01*
X5640586Y-12144481D01*
X5451615Y-12352869D01*
X5306930Y-12594119D01*
X5212091Y-12858960D01*
X3961628Y-12858960D01*
X3931225Y-12758736D01*
X3792069Y-12498394D01*
X3604797Y-12270203D01*
X3376606Y-12082931D01*
X3116264Y-11943775D01*
X2833777Y-11858084D01*
X2613619Y-11836400D01*
X2466381Y-11836400D01*
X2246223Y-11858084D01*
X1963736Y-11943775D01*
X1703394Y-12082931D01*
X1475203Y-12270203D01*
X1330930Y-12446000D01*
X1209070Y-12446000D01*
X1064797Y-12270203D01*
X836606Y-12082931D01*
X576264Y-11943775D01*
X293777Y-11858084D01*
X73619Y-11836400D01*
X-73619Y-11836400D01*
X-293777Y-11858084D01*
X-576264Y-11943775D01*
X-836606Y-12082931D01*
X-1064797Y-12270203D01*
X-1204967Y-12441000D01*
X-3076341Y-12441000D01*
X-3120001Y-12436700D01*
X-3163661Y-12441000D01*
X-3163667Y-12441000D01*
X-3261076Y-12450594D01*
X-3294276Y-12453864D01*
X-3395942Y-12484704D01*
X-3461851Y-12504697D01*
X-3616291Y-12587247D01*
X-3751659Y-12698341D01*
X-3779499Y-12732264D01*
X-5657741Y-14610506D01*
X-5691658Y-14638341D01*
X-5719493Y-14672258D01*
X-5719495Y-14672260D01*
X-5802752Y-14773709D01*
X-5885302Y-14928148D01*
X-5936136Y-15095726D01*
X-5953300Y-15270000D01*
X-5948999Y-15313670D01*
X-5949000Y-31665696D01*
X-6155134Y-31834866D01*
X-6340706Y-32060986D01*
X-6370000Y-32115791D01*
X-6399294Y-32060986D01*
X-6584866Y-31834866D01*
X-6810986Y-31649294D01*
X-7068966Y-31511401D01*
X-7348889Y-31426487D01*
X-7567050Y-31405000D01*
X-7712950Y-31405000D01*
X-7931111Y-31426487D01*
X-8211034Y-31511401D01*
X-8469014Y-31649294D01*
X-8695134Y-31834866D01*
X-8880706Y-32060986D01*
X-9018599Y-32318966D01*
X-9103513Y-32598889D01*
X-9132185Y-32890000D01*
X-9500000Y-32890000D01*
X-9500000Y-2896890D01*
X-1441476Y-2896890D01*
X-1396825Y-3044099D01*
X-1271641Y-3306920D01*
X-1097588Y-3540269D01*
X-881355Y-3735178D01*
X-631252Y-3884157D01*
X-356891Y-3981481D01*
X-127000Y-3860814D01*
X-127000Y-2667000D01*
X127000Y-2667000D01*
X127000Y-3860814D01*
X356891Y-3981481D01*
X631252Y-3884157D01*
X881355Y-3735178D01*
X1097588Y-3540269D01*
X1271641Y-3306920D01*
X1396825Y-3044099D01*
X1441476Y-2896890D01*
X1320155Y-2667000D01*
X127000Y-2667000D01*
X-127000Y-2667000D01*
X-1320155Y-2667000D01*
X-1441476Y-2896890D01*
X-9500000Y-2896890D01*
X-9500000Y850000D01*
X-1488072Y850000D01*
X-1488072Y-850000D01*
X-1475812Y-974482D01*
X-1439502Y-1094180D01*
X-1380537Y-1204494D01*
X-1301185Y-1301185D01*
X-1204494Y-1380537D01*
X-1094180Y-1439502D01*
X-1013534Y-1463966D01*
X-1097588Y-1539731D01*
X-1271641Y-1773080D01*
X-1396825Y-2035901D01*
X-1441476Y-2183110D01*
X-1320155Y-2413000D01*
X-127000Y-2413000D01*
X-127000Y-2393000D01*
X127000Y-2393000D01*
X127000Y-2413000D01*
X1320155Y-2413000D01*
X1441476Y-2183110D01*
X1396825Y-2035901D01*
X1271641Y-1773080D01*
X1097588Y-1539731D01*
X1013534Y-1463966D01*
X1094180Y-1439502D01*
X1204494Y-1380537D01*
X1301185Y-1301185D01*
X1380537Y-1204494D01*
X1439502Y-1094180D01*
X1475812Y-974482D01*
X1484231Y-889000D01*
X3541928Y-889000D01*
X3541928Y-900000D01*
X3554188Y-1024482D01*
X3590498Y-1144180D01*
X3649463Y-1254494D01*
X3728815Y-1351185D01*
X3825506Y-1430537D01*
X3935820Y-1489502D01*
X3954127Y-1495056D01*
X3887688Y-1561495D01*
X3719701Y-1812905D01*
X3603989Y-2092257D01*
X3545000Y-2388816D01*
X3545000Y-2691184D01*
X3603989Y-2987743D01*
X3719701Y-3267095D01*
X3887688Y-3518505D01*
X4101495Y-3732312D01*
X4320000Y-3878313D01*
X4320000Y-4026677D01*
X4316324Y-4064000D01*
X4320000Y-4101322D01*
X4320000Y-4101332D01*
X4330997Y-4212985D01*
X4362343Y-4316320D01*
X4374454Y-4356246D01*
X4445026Y-4488276D01*
X4484871Y-4536826D01*
X4539999Y-4604001D01*
X4569002Y-4627803D01*
X5205312Y-5264114D01*
X5169000Y-5446665D01*
X5169000Y-5729335D01*
X5224147Y-6006574D01*
X5332320Y-6267727D01*
X5489363Y-6502759D01*
X5689241Y-6702637D01*
X5924273Y-6859680D01*
X6185426Y-6967853D01*
X6462665Y-7023000D01*
X6745335Y-7023000D01*
X7022574Y-6967853D01*
X7283727Y-6859680D01*
X7518759Y-6702637D01*
X7718637Y-6502759D01*
X7875680Y-6267727D01*
X7983853Y-6006574D01*
X8039000Y-5729335D01*
X8039000Y-5446665D01*
X7983853Y-5169426D01*
X7875680Y-4908273D01*
X7718637Y-4673241D01*
X7518759Y-4473363D01*
X7283727Y-4316320D01*
X7022574Y-4208147D01*
X6745335Y-4153000D01*
X6462665Y-4153000D01*
X6280114Y-4189312D01*
X5917398Y-3826597D01*
X6058505Y-3732312D01*
X6272312Y-3518505D01*
X6440299Y-3267095D01*
X6556011Y-2987743D01*
X6574082Y-2896890D01*
X8718524Y-2896890D01*
X8763175Y-3044099D01*
X8888359Y-3306920D01*
X9062412Y-3540269D01*
X9278645Y-3735178D01*
X9528748Y-3884157D01*
X9803109Y-3981481D01*
X10033000Y-3860814D01*
X10033000Y-2667000D01*
X10287000Y-2667000D01*
X10287000Y-3860814D01*
X10516891Y-3981481D01*
X10791252Y-3884157D01*
X11041355Y-3735178D01*
X11257588Y-3540269D01*
X11431641Y-3306920D01*
X11556825Y-3044099D01*
X11601476Y-2896890D01*
X11480155Y-2667000D01*
X10287000Y-2667000D01*
X10033000Y-2667000D01*
X8839845Y-2667000D01*
X8718524Y-2896890D01*
X6574082Y-2896890D01*
X6615000Y-2691184D01*
X6615000Y-2388816D01*
X6556011Y-2092257D01*
X6440299Y-1812905D01*
X6272312Y-1561495D01*
X6205873Y-1495056D01*
X6224180Y-1489502D01*
X6334494Y-1430537D01*
X6431185Y-1351185D01*
X6510537Y-1254494D01*
X6569502Y-1144180D01*
X6605812Y-1024482D01*
X6618072Y-900000D01*
X6618072Y-889000D01*
X8675769Y-889000D01*
X8684188Y-974482D01*
X8720498Y-1094180D01*
X8779463Y-1204494D01*
X8858815Y-1301185D01*
X8955506Y-1380537D01*
X9065820Y-1439502D01*
X9146466Y-1463966D01*
X9062412Y-1539731D01*
X8888359Y-1773080D01*
X8763175Y-2035901D01*
X8718524Y-2183110D01*
X8839845Y-2413000D01*
X10033000Y-2413000D01*
X10033000Y-2393000D01*
X10287000Y-2393000D01*
X10287000Y-2413000D01*
X11480155Y-2413000D01*
X11601476Y-2183110D01*
X11556825Y-2035901D01*
X11431641Y-1773080D01*
X11257588Y-1539731D01*
X11173534Y-1463966D01*
X11254180Y-1439502D01*
X11364494Y-1380537D01*
X11461185Y-1301185D01*
X11540537Y-1204494D01*
X11599502Y-1094180D01*
X11635812Y-974482D01*
X11648072Y-850000D01*
X11648072Y850000D01*
X11635812Y974482D01*
X11599502Y1094180D01*
X11540537Y1204494D01*
X11461185Y1301185D01*
X11364494Y1380537D01*
X11254180Y1439502D01*
X11134482Y1475812D01*
X11010000Y1488072D01*
X9310000Y1488072D01*
X9185518Y1475812D01*
X9065820Y1439502D01*
X8955506Y1380537D01*
X8858815Y1301185D01*
X8779463Y1204494D01*
X8720498Y1094180D01*
X8684188Y974482D01*
X8675769Y889000D01*
X6618072Y889000D01*
X6618072Y900000D01*
X6605812Y1024482D01*
X6569502Y1144180D01*
X6510537Y1254494D01*
X6431185Y1351185D01*
X6334494Y1430537D01*
X6224180Y1489502D01*
X6104482Y1525812D01*
X5980000Y1538072D01*
X4180000Y1538072D01*
X4055518Y1525812D01*
X3935820Y1489502D01*
X3825506Y1430537D01*
X3728815Y1351185D01*
X3649463Y1254494D01*
X3590498Y1144180D01*
X3554188Y1024482D01*
X3541928Y900000D01*
X3541928Y889000D01*
X1484231Y889000D01*
X1475812Y974482D01*
X1439502Y1094180D01*
X1380537Y1204494D01*
X1301185Y1301185D01*
X1204494Y1380537D01*
X1094180Y1439502D01*
X974482Y1475812D01*
X850000Y1488072D01*
X-850000Y1488072D01*
X-974482Y1475812D01*
X-1094180Y1439502D01*
X-1204494Y1380537D01*
X-1301185Y1301185D01*
X-1380537Y1204494D01*
X-1439502Y1094180D01*
X-1475812Y974482D01*
X-1488072Y850000D01*
X-9500000Y850000D01*
X-9500000Y1880000D01*
X12040000Y1880000D01*
X12040001Y-48870000D01*
X12040001Y-48870000D01*
G37*
X12040001Y-48870000D02*
X-9500000Y-48870000D01*
X-9500000Y-47346890D01*
X-1441476Y-47346890D01*
X-1396825Y-47494099D01*
X-1271641Y-47756920D01*
X-1097588Y-47990269D01*
X-881355Y-48185178D01*
X-631252Y-48334157D01*
X-356891Y-48431481D01*
X-127000Y-48310814D01*
X-127000Y-47117000D01*
X127000Y-47117000D01*
X127000Y-48310814D01*
X356891Y-48431481D01*
X631252Y-48334157D01*
X881355Y-48185178D01*
X1097588Y-47990269D01*
X1172377Y-47890000D01*
X3541928Y-47890000D01*
X3554188Y-48014482D01*
X3590498Y-48134180D01*
X3649463Y-48244494D01*
X3728815Y-48341185D01*
X3825506Y-48420537D01*
X3935820Y-48479502D01*
X4055518Y-48515812D01*
X4180000Y-48528072D01*
X4794250Y-48525000D01*
X4953000Y-48366250D01*
X4953000Y-47117000D01*
X5207000Y-47117000D01*
X5207000Y-48366250D01*
X5365750Y-48525000D01*
X5980000Y-48528072D01*
X6104482Y-48515812D01*
X6224180Y-48479502D01*
X6334494Y-48420537D01*
X6431185Y-48341185D01*
X6510537Y-48244494D01*
X6569502Y-48134180D01*
X6605812Y-48014482D01*
X6618072Y-47890000D01*
X6615356Y-47346890D01*
X8718524Y-47346890D01*
X8763175Y-47494099D01*
X8888359Y-47756920D01*
X9062412Y-47990269D01*
X9278645Y-48185178D01*
X9528748Y-48334157D01*
X9803109Y-48431481D01*
X10033000Y-48310814D01*
X10033000Y-47117000D01*
X10287000Y-47117000D01*
X10287000Y-48310814D01*
X10516891Y-48431481D01*
X10791252Y-48334157D01*
X11041355Y-48185178D01*
X11257588Y-47990269D01*
X11431641Y-47756920D01*
X11556825Y-47494099D01*
X11601476Y-47346890D01*
X11480155Y-47117000D01*
X10287000Y-47117000D01*
X10033000Y-47117000D01*
X8839845Y-47117000D01*
X8718524Y-47346890D01*
X6615356Y-47346890D01*
X6615000Y-47275750D01*
X6456250Y-47117000D01*
X5207000Y-47117000D01*
X4953000Y-47117000D01*
X3703750Y-47117000D01*
X3545000Y-47275750D01*
X3541928Y-47890000D01*
X1172377Y-47890000D01*
X1271641Y-47756920D01*
X1396825Y-47494099D01*
X1441476Y-47346890D01*
X1320155Y-47117000D01*
X127000Y-47117000D01*
X-127000Y-47117000D01*
X-1320155Y-47117000D01*
X-1441476Y-47346890D01*
X-9500000Y-47346890D01*
X-9500000Y-43600000D01*
X-1488072Y-43600000D01*
X-1488072Y-45300000D01*
X-1475812Y-45424482D01*
X-1439502Y-45544180D01*
X-1380537Y-45654494D01*
X-1301185Y-45751185D01*
X-1204494Y-45830537D01*
X-1094180Y-45889502D01*
X-1013534Y-45913966D01*
X-1097588Y-45989731D01*
X-1271641Y-46223080D01*
X-1396825Y-46485901D01*
X-1441476Y-46633110D01*
X-1320155Y-46863000D01*
X-127000Y-46863000D01*
X-127000Y-46843000D01*
X127000Y-46843000D01*
X127000Y-46863000D01*
X1320155Y-46863000D01*
X1441476Y-46633110D01*
X1396825Y-46485901D01*
X1271641Y-46223080D01*
X1097588Y-45989731D01*
X1013534Y-45913966D01*
X1094180Y-45889502D01*
X1204494Y-45830537D01*
X1301185Y-45751185D01*
X1380537Y-45654494D01*
X1439502Y-45544180D01*
X1475812Y-45424482D01*
X1485040Y-45330788D01*
X1532274Y-45326136D01*
X1699851Y-45275303D01*
X1854291Y-45192753D01*
X1989659Y-45081659D01*
X2017499Y-45047736D01*
X3504236Y-43561000D01*
X3827883Y-43561000D01*
X3719701Y-43722905D01*
X3603989Y-44002257D01*
X3545000Y-44298816D01*
X3545000Y-44601184D01*
X3603989Y-44897743D01*
X3719701Y-45177095D01*
X3887688Y-45428505D01*
X3954127Y-45494944D01*
X3935820Y-45500498D01*
X3825506Y-45559463D01*
X3728815Y-45638815D01*
X3649463Y-45735506D01*
X3590498Y-45845820D01*
X3554188Y-45965518D01*
X3541928Y-46090000D01*
X3545000Y-46704250D01*
X3703750Y-46863000D01*
X4953000Y-46863000D01*
X4953000Y-46843000D01*
X5207000Y-46843000D01*
X5207000Y-46863000D01*
X6456250Y-46863000D01*
X6615000Y-46704250D01*
X6618072Y-46090000D01*
X6605812Y-45965518D01*
X6569502Y-45845820D01*
X6510537Y-45735506D01*
X6431185Y-45638815D01*
X6334494Y-45559463D01*
X6224180Y-45500498D01*
X6205873Y-45494944D01*
X6272312Y-45428505D01*
X6440299Y-45177095D01*
X6556011Y-44897743D01*
X6615000Y-44601184D01*
X6615000Y-44298816D01*
X6556011Y-44002257D01*
X6440299Y-43722905D01*
X6332117Y-43561000D01*
X6655765Y-43561000D01*
X8142506Y-45047742D01*
X8170341Y-45081659D01*
X8305709Y-45192753D01*
X8460149Y-45275303D01*
X8541566Y-45300000D01*
X8627725Y-45326136D01*
X8644325Y-45327771D01*
X8674960Y-45330788D01*
X8684188Y-45424482D01*
X8720498Y-45544180D01*
X8779463Y-45654494D01*
X8858815Y-45751185D01*
X8955506Y-45830537D01*
X9065820Y-45889502D01*
X9146466Y-45913966D01*
X9062412Y-45989731D01*
X8888359Y-46223080D01*
X8763175Y-46485901D01*
X8718524Y-46633110D01*
X8839845Y-46863000D01*
X10033000Y-46863000D01*
X10033000Y-46843000D01*
X10287000Y-46843000D01*
X10287000Y-46863000D01*
X11480155Y-46863000D01*
X11601476Y-46633110D01*
X11556825Y-46485901D01*
X11431641Y-46223080D01*
X11257588Y-45989731D01*
X11173534Y-45913966D01*
X11254180Y-45889502D01*
X11364494Y-45830537D01*
X11461185Y-45751185D01*
X11540537Y-45654494D01*
X11599502Y-45544180D01*
X11635812Y-45424482D01*
X11648072Y-45300000D01*
X11648072Y-43600000D01*
X11635812Y-43475518D01*
X11599502Y-43355820D01*
X11540537Y-43245506D01*
X11461185Y-43148815D01*
X11364494Y-43069463D01*
X11254180Y-43010498D01*
X11134482Y-42974188D01*
X11010000Y-42961928D01*
X9310000Y-42961928D01*
X9185518Y-42974188D01*
X9065820Y-43010498D01*
X8955506Y-43069463D01*
X8858815Y-43148815D01*
X8813395Y-43204159D01*
X7683499Y-42074264D01*
X7655659Y-42040341D01*
X7520291Y-41929247D01*
X7365851Y-41846697D01*
X7198274Y-41795864D01*
X7067667Y-41783000D01*
X7067660Y-41783000D01*
X7024000Y-41778700D01*
X6980340Y-41783000D01*
X4679254Y-41783000D01*
X4829608Y-41659608D01*
X5008932Y-41441101D01*
X5142182Y-41191808D01*
X5224236Y-40921309D01*
X5251943Y-40640000D01*
X5224236Y-40358691D01*
X5142182Y-40088192D01*
X5008932Y-39838899D01*
X4829608Y-39620392D01*
X4611101Y-39441068D01*
X4361808Y-39307818D01*
X4091309Y-39225764D01*
X3880492Y-39205000D01*
X3739508Y-39205000D01*
X3528691Y-39225764D01*
X3258192Y-39307818D01*
X3008899Y-39441068D01*
X2790392Y-39620392D01*
X2611068Y-39838899D01*
X2477818Y-40088192D01*
X2395764Y-40358691D01*
X2368057Y-40640000D01*
X2395764Y-40921309D01*
X2477818Y-41191808D01*
X2611068Y-41441101D01*
X2790392Y-41659608D01*
X2957852Y-41797039D01*
X2910892Y-41811284D01*
X2794149Y-41846697D01*
X2639709Y-41929247D01*
X2504341Y-42040341D01*
X2476506Y-42074258D01*
X1346605Y-43204160D01*
X1301185Y-43148815D01*
X1204494Y-43069463D01*
X1094180Y-43010498D01*
X974482Y-42974188D01*
X850000Y-42961928D01*
X-850000Y-42961928D01*
X-974482Y-42974188D01*
X-1094180Y-43010498D01*
X-1204494Y-43069463D01*
X-1301185Y-43148815D01*
X-1380537Y-43245506D01*
X-1439502Y-43355820D01*
X-1475812Y-43475518D01*
X-1488072Y-43600000D01*
X-9500000Y-43600000D01*
X-9500000Y-37690000D01*
X-9123072Y-37690000D01*
X-9123072Y-39390000D01*
X-9110812Y-39514482D01*
X-9074502Y-39634180D01*
X-9015537Y-39744494D01*
X-8936185Y-39841185D01*
X-8839494Y-39920537D01*
X-8729180Y-39979502D01*
X-8609482Y-40015812D01*
X-8485000Y-40028072D01*
X-6785000Y-40028072D01*
X-6660518Y-40015812D01*
X-6540820Y-39979502D01*
X-6430506Y-39920537D01*
X-6333815Y-39841185D01*
X-6254463Y-39744494D01*
X-6195498Y-39634180D01*
X-6174607Y-39565313D01*
X-6150134Y-39595134D01*
X-5924014Y-39780706D01*
X-5666034Y-39918599D01*
X-5386111Y-40003513D01*
X-5167950Y-40025000D01*
X-5022050Y-40025000D01*
X-4803889Y-40003513D01*
X-4523966Y-39918599D01*
X-4265986Y-39780706D01*
X-4039866Y-39595134D01*
X-3854294Y-39369014D01*
X-3825000Y-39314209D01*
X-3795706Y-39369014D01*
X-3610134Y-39595134D01*
X-3384014Y-39780706D01*
X-3126034Y-39918599D01*
X-2846111Y-40003513D01*
X-2627950Y-40025000D01*
X-2482050Y-40025000D01*
X-2263889Y-40003513D01*
X-1983966Y-39918599D01*
X-1725986Y-39780706D01*
X-1499866Y-39595134D01*
X-1314294Y-39369014D01*
X-1176401Y-39111034D01*
X-1091487Y-38831111D01*
X-1062815Y-38540000D01*
X-1091487Y-38248889D01*
X-1176401Y-37968966D01*
X-1251214Y-37829000D01*
X3402340Y-37829000D01*
X3446000Y-37833300D01*
X3489660Y-37829000D01*
X3489667Y-37829000D01*
X3620274Y-37816136D01*
X3787851Y-37765303D01*
X3942291Y-37682753D01*
X4077659Y-37571659D01*
X4105499Y-37537736D01*
X9487743Y-32155493D01*
X9521659Y-32127659D01*
X9632753Y-31992291D01*
X9715303Y-31837851D01*
X9766136Y-31670274D01*
X9779000Y-31539667D01*
X9779000Y-31539660D01*
X9783300Y-31496000D01*
X9779000Y-31452340D01*
X9779000Y-29666849D01*
X9804759Y-29649637D01*
X10004637Y-29449759D01*
X10161680Y-29214727D01*
X10269853Y-28953574D01*
X10325000Y-28676335D01*
X10325000Y-28393665D01*
X10269853Y-28116426D01*
X10161680Y-27855273D01*
X10004637Y-27620241D01*
X9838057Y-27453661D01*
X9934180Y-27424502D01*
X10044494Y-27365537D01*
X10141185Y-27286185D01*
X10220537Y-27189494D01*
X10279502Y-27079180D01*
X10315812Y-26959482D01*
X10328072Y-26835000D01*
X10325000Y-26320750D01*
X10166250Y-26162000D01*
X9017000Y-26162000D01*
X9017000Y-26182000D01*
X8763000Y-26182000D01*
X8763000Y-26162000D01*
X7613750Y-26162000D01*
X7455000Y-26320750D01*
X7451928Y-26835000D01*
X7464188Y-26959482D01*
X7500498Y-27079180D01*
X7559463Y-27189494D01*
X7638815Y-27286185D01*
X7735506Y-27365537D01*
X7845820Y-27424502D01*
X7941943Y-27453661D01*
X7775363Y-27620241D01*
X7758151Y-27646000D01*
X6576636Y-27646000D01*
X4165636Y-25235000D01*
X7451928Y-25235000D01*
X7455000Y-25749250D01*
X7613750Y-25908000D01*
X8763000Y-25908000D01*
X8763000Y-24758750D01*
X9017000Y-24758750D01*
X9017000Y-25908000D01*
X10166250Y-25908000D01*
X10325000Y-25749250D01*
X10328072Y-25235000D01*
X10315812Y-25110518D01*
X10279502Y-24990820D01*
X10220537Y-24880506D01*
X10141185Y-24783815D01*
X10044494Y-24704463D01*
X9934180Y-24645498D01*
X9814482Y-24609188D01*
X9690000Y-24596928D01*
X9175750Y-24600000D01*
X9017000Y-24758750D01*
X8763000Y-24758750D01*
X8604250Y-24600000D01*
X8090000Y-24596928D01*
X7965518Y-24609188D01*
X7845820Y-24645498D01*
X7735506Y-24704463D01*
X7638815Y-24783815D01*
X7559463Y-24880506D01*
X7500498Y-24990820D01*
X7464188Y-25110518D01*
X7451928Y-25235000D01*
X4165636Y-25235000D01*
X3791971Y-24861335D01*
X3854785Y-24809785D01*
X3934137Y-24713094D01*
X3993102Y-24602780D01*
X4029412Y-24483082D01*
X4041672Y-24358600D01*
X4041672Y-22631400D01*
X4029412Y-22506918D01*
X3993102Y-22387220D01*
X3934137Y-22276906D01*
X3854785Y-22180215D01*
X3758094Y-22100863D01*
X3647780Y-22041898D01*
X3583426Y-22022376D01*
X3646854Y-21965293D01*
X3689880Y-21907702D01*
X8076903Y-21907702D01*
X8148486Y-22151671D01*
X8403996Y-22272571D01*
X8678184Y-22341300D01*
X8960512Y-22355217D01*
X9240130Y-22313787D01*
X9506292Y-22218603D01*
X9631514Y-22151671D01*
X9703097Y-21907702D01*
X8890000Y-21094605D01*
X8076903Y-21907702D01*
X3689880Y-21907702D01*
X3822684Y-21729944D01*
X3949222Y-21464814D01*
X3994958Y-21314026D01*
X3873817Y-21082000D01*
X2667000Y-21082000D01*
X2667000Y-21102000D01*
X2413000Y-21102000D01*
X2413000Y-21082000D01*
X127000Y-21082000D01*
X127000Y-21102000D01*
X-127000Y-21102000D01*
X-127000Y-21082000D01*
X-1333817Y-21082000D01*
X-1454958Y-21314026D01*
X-1409222Y-21464814D01*
X-1282684Y-21729944D01*
X-1106854Y-21965293D01*
X-888488Y-22161817D01*
X-792090Y-22219137D01*
X-836606Y-22242931D01*
X-1064797Y-22430203D01*
X-1252069Y-22658394D01*
X-1391225Y-22918736D01*
X-1476916Y-23201223D01*
X-1505851Y-23495000D01*
X-1476916Y-23788777D01*
X-1391225Y-24071264D01*
X-1252069Y-24331606D01*
X-1064797Y-24559797D01*
X-836606Y-24747069D01*
X-576264Y-24886225D01*
X-293777Y-24971916D01*
X-73619Y-24993600D01*
X73619Y-24993600D01*
X293777Y-24971916D01*
X576264Y-24886225D01*
X836606Y-24747069D01*
X1064797Y-24559797D01*
X1071414Y-24551735D01*
X1086898Y-24602780D01*
X1145863Y-24713094D01*
X1225215Y-24809785D01*
X1321906Y-24889137D01*
X1432220Y-24948102D01*
X1551918Y-24984412D01*
X1659345Y-24994992D01*
X1663864Y-25040873D01*
X1714697Y-25208450D01*
X1797247Y-25362890D01*
X1908341Y-25498259D01*
X1942264Y-25526099D01*
X5548906Y-29132742D01*
X5576741Y-29166659D01*
X5712109Y-29277753D01*
X5866549Y-29360303D01*
X5961158Y-29389002D01*
X6034125Y-29411136D01*
X6052473Y-29412943D01*
X6164733Y-29424000D01*
X6164739Y-29424000D01*
X6208399Y-29428300D01*
X6252059Y-29424000D01*
X7758151Y-29424000D01*
X7775363Y-29449759D01*
X7975241Y-29649637D01*
X8001000Y-29666849D01*
X8001000Y-29710036D01*
X8001001Y-29710046D01*
X8001000Y-31127764D01*
X3077765Y-36051000D01*
X-3451340Y-36051000D01*
X-3495000Y-36046700D01*
X-3538660Y-36051000D01*
X-3538667Y-36051000D01*
X-3652675Y-36062229D01*
X-3669275Y-36063864D01*
X-3720108Y-36079284D01*
X-3836851Y-36114697D01*
X-3991291Y-36197247D01*
X-4126659Y-36308341D01*
X-4154494Y-36342258D01*
X-4881116Y-37068881D01*
X-5022050Y-37055000D01*
X-5167950Y-37055000D01*
X-5386111Y-37076487D01*
X-5666034Y-37161401D01*
X-5924014Y-37299294D01*
X-6150134Y-37484866D01*
X-6174607Y-37514687D01*
X-6195498Y-37445820D01*
X-6254463Y-37335506D01*
X-6333815Y-37238815D01*
X-6430506Y-37159463D01*
X-6540820Y-37100498D01*
X-6660518Y-37064188D01*
X-6785000Y-37051928D01*
X-8485000Y-37051928D01*
X-8609482Y-37064188D01*
X-8729180Y-37100498D01*
X-8839494Y-37159463D01*
X-8936185Y-37238815D01*
X-9015537Y-37335506D01*
X-9074502Y-37445820D01*
X-9110812Y-37565518D01*
X-9123072Y-37690000D01*
X-9500000Y-37690000D01*
X-9500000Y-32890000D01*
X-9132185Y-32890000D01*
X-9103513Y-33181111D01*
X-9018599Y-33461034D01*
X-8880706Y-33719014D01*
X-8695134Y-33945134D01*
X-8469014Y-34130706D01*
X-8211034Y-34268599D01*
X-7931111Y-34353513D01*
X-7712950Y-34375000D01*
X-7567050Y-34375000D01*
X-7348889Y-34353513D01*
X-7068966Y-34268599D01*
X-6810986Y-34130706D01*
X-6584866Y-33945134D01*
X-6399294Y-33719014D01*
X-6370000Y-33664209D01*
X-6340706Y-33719014D01*
X-6155134Y-33945134D01*
X-5929014Y-34130706D01*
X-5671034Y-34268599D01*
X-5391111Y-34353513D01*
X-5172950Y-34375000D01*
X-5027050Y-34375000D01*
X-4808889Y-34353513D01*
X-4528966Y-34268599D01*
X-4270986Y-34130706D01*
X-4044866Y-33945134D01*
X-4020393Y-33915313D01*
X-3999502Y-33984180D01*
X-3940537Y-34094494D01*
X-3861185Y-34191185D01*
X-3764494Y-34270537D01*
X-3654180Y-34329502D01*
X-3534482Y-34365812D01*
X-3410000Y-34378072D01*
X-1710000Y-34378072D01*
X-1585518Y-34365812D01*
X-1465820Y-34329502D01*
X-1355506Y-34270537D01*
X-1258815Y-34191185D01*
X-1179463Y-34094494D01*
X-1120498Y-33984180D01*
X-1084188Y-33864482D01*
X-1071928Y-33740000D01*
X-1071928Y-32878665D01*
X2375000Y-32878665D01*
X2375000Y-33161335D01*
X2430147Y-33438574D01*
X2538320Y-33699727D01*
X2695363Y-33934759D01*
X2895241Y-34134637D01*
X3130273Y-34291680D01*
X3391426Y-34399853D01*
X3668665Y-34455000D01*
X3951335Y-34455000D01*
X4228574Y-34399853D01*
X4489727Y-34291680D01*
X4724759Y-34134637D01*
X4924637Y-33934759D01*
X5081680Y-33699727D01*
X5189853Y-33438574D01*
X5245000Y-33161335D01*
X5245000Y-32878665D01*
X5189853Y-32601426D01*
X5081680Y-32340273D01*
X4924637Y-32105241D01*
X4724759Y-31905363D01*
X4489727Y-31748320D01*
X4228574Y-31640147D01*
X3951335Y-31585000D01*
X3668665Y-31585000D01*
X3391426Y-31640147D01*
X3130273Y-31748320D01*
X2895241Y-31905363D01*
X2695363Y-32105241D01*
X2538320Y-32340273D01*
X2430147Y-32601426D01*
X2375000Y-32878665D01*
X-1071928Y-32878665D01*
X-1071928Y-32040000D01*
X-1084188Y-31915518D01*
X-1120498Y-31795820D01*
X-1179463Y-31685506D01*
X-1258815Y-31588815D01*
X-1355506Y-31509463D01*
X-1465820Y-31450498D01*
X-1585518Y-31414188D01*
X-1710000Y-31401928D01*
X-3410000Y-31401928D01*
X-3534482Y-31414188D01*
X-3654180Y-31450498D01*
X-3764494Y-31509463D01*
X-3861185Y-31588815D01*
X-3940537Y-31685506D01*
X-3999502Y-31795820D01*
X-4020393Y-31864687D01*
X-4044866Y-31834866D01*
X-4171000Y-31731350D01*
X-4171000Y-20985512D01*
X7449783Y-20985512D01*
X7491213Y-21265130D01*
X7586397Y-21531292D01*
X7653329Y-21656514D01*
X7897298Y-21728097D01*
X8710395Y-20915000D01*
X9069605Y-20915000D01*
X9882702Y-21728097D01*
X10126671Y-21656514D01*
X10247571Y-21401004D01*
X10316300Y-21126816D01*
X10330217Y-20844488D01*
X10288787Y-20564870D01*
X10193603Y-20298708D01*
X10126671Y-20173486D01*
X9882702Y-20101903D01*
X9069605Y-20915000D01*
X8710395Y-20915000D01*
X7897298Y-20101903D01*
X7653329Y-20173486D01*
X7532429Y-20428996D01*
X7463700Y-20703184D01*
X7449783Y-20985512D01*
X-4171000Y-20985512D01*
X-4171000Y-18774026D01*
X-1454958Y-18774026D01*
X-1409222Y-18924814D01*
X-1282684Y-19189944D01*
X-1106854Y-19425293D01*
X-888488Y-19621817D01*
X-782230Y-19685000D01*
X-888488Y-19748183D01*
X-1106854Y-19944707D01*
X-1282684Y-20180056D01*
X-1409222Y-20445186D01*
X-1454958Y-20595974D01*
X-1333817Y-20828000D01*
X-127000Y-20828000D01*
X-127000Y-18542000D01*
X127000Y-18542000D01*
X127000Y-20828000D01*
X2413000Y-20828000D01*
X2413000Y-18542000D01*
X2667000Y-18542000D01*
X2667000Y-20828000D01*
X3873817Y-20828000D01*
X3994958Y-20595974D01*
X3949222Y-20445186D01*
X3822684Y-20180056D01*
X3646854Y-19944707D01*
X3428488Y-19748183D01*
X3322230Y-19685000D01*
X3428488Y-19621817D01*
X3646854Y-19425293D01*
X3822684Y-19189944D01*
X3949222Y-18924814D01*
X3994958Y-18774026D01*
X3873817Y-18542000D01*
X2667000Y-18542000D01*
X2413000Y-18542000D01*
X127000Y-18542000D01*
X-127000Y-18542000D01*
X-1333817Y-18542000D01*
X-1454958Y-18774026D01*
X-4171000Y-18774026D01*
X-4171000Y-16234026D01*
X-1454958Y-16234026D01*
X-1409222Y-16384814D01*
X-1282684Y-16649944D01*
X-1106854Y-16885293D01*
X-888488Y-17081817D01*
X-782230Y-17145000D01*
X-888488Y-17208183D01*
X-1106854Y-17404707D01*
X-1282684Y-17640056D01*
X-1409222Y-17905186D01*
X-1454958Y-18055974D01*
X-1333817Y-18288000D01*
X-127000Y-18288000D01*
X-127000Y-16002000D01*
X127000Y-16002000D01*
X127000Y-18288000D01*
X2413000Y-18288000D01*
X2413000Y-16002000D01*
X127000Y-16002000D01*
X-127000Y-16002000D01*
X-1333817Y-16002000D01*
X-1454958Y-16234026D01*
X-4171000Y-16234026D01*
X-4171000Y-15638235D01*
X-2751765Y-14219000D01*
X-1213174Y-14219000D01*
X-1064797Y-14399797D01*
X-836606Y-14587069D01*
X-792090Y-14610863D01*
X-888488Y-14668183D01*
X-1106854Y-14864707D01*
X-1282684Y-15100056D01*
X-1409222Y-15365186D01*
X-1454958Y-15515974D01*
X-1333817Y-15748000D01*
X-127000Y-15748000D01*
X-127000Y-15728000D01*
X127000Y-15728000D01*
X127000Y-15748000D01*
X2413000Y-15748000D01*
X2413000Y-15728000D01*
X2667000Y-15728000D01*
X2667000Y-15748000D01*
X2687000Y-15748000D01*
X2687000Y-16002000D01*
X2667000Y-16002000D01*
X2667000Y-18288000D01*
X3873817Y-18288000D01*
X3994958Y-18055974D01*
X3949222Y-17905186D01*
X3822684Y-17640056D01*
X3646854Y-17404707D01*
X3428488Y-17208183D01*
X3322230Y-17145000D01*
X3428488Y-17081817D01*
X3646854Y-16885293D01*
X3822684Y-16649944D01*
X3949222Y-16384814D01*
X3994958Y-16234026D01*
X3873818Y-16002002D01*
X3911767Y-16002002D01*
X6922506Y-19012742D01*
X6950341Y-19046659D01*
X7085709Y-19157753D01*
X7240149Y-19240303D01*
X7334758Y-19269002D01*
X7407725Y-19291136D01*
X7424325Y-19292771D01*
X7459933Y-19296278D01*
X7464188Y-19339482D01*
X7500498Y-19459180D01*
X7559463Y-19569494D01*
X7638815Y-19666185D01*
X7735506Y-19745537D01*
X7845820Y-19804502D01*
X7965518Y-19840812D01*
X8090000Y-19853072D01*
X8097215Y-19853072D01*
X8076903Y-19922298D01*
X8890000Y-20735395D01*
X9703097Y-19922298D01*
X9682785Y-19853072D01*
X9690000Y-19853072D01*
X9814482Y-19840812D01*
X9934180Y-19804502D01*
X10044494Y-19745537D01*
X10141185Y-19666185D01*
X10220537Y-19569494D01*
X10279502Y-19459180D01*
X10315812Y-19339482D01*
X10328072Y-19215000D01*
X10328072Y-17615000D01*
X10315812Y-17490518D01*
X10279502Y-17370820D01*
X10220537Y-17260506D01*
X10141185Y-17163815D01*
X10044494Y-17084463D01*
X9934180Y-17025498D01*
X9814482Y-16989188D01*
X9690000Y-16976928D01*
X8090000Y-16976928D01*
X7965518Y-16989188D01*
X7845820Y-17025498D01*
X7735506Y-17084463D01*
X7638815Y-17163815D01*
X7615933Y-17191697D01*
X4020152Y-13595917D01*
X4023981Y-13557040D01*
X5212091Y-13557040D01*
X5306930Y-13821881D01*
X5451615Y-14063131D01*
X5640586Y-14271519D01*
X5866580Y-14439037D01*
X6120913Y-14559246D01*
X6254961Y-14599904D01*
X6477000Y-14477915D01*
X6477000Y-13335000D01*
X6731000Y-13335000D01*
X6731000Y-14477915D01*
X6953039Y-14599904D01*
X7087087Y-14559246D01*
X7341420Y-14439037D01*
X7567414Y-14271519D01*
X7756385Y-14063131D01*
X7901070Y-13821881D01*
X7995909Y-13557040D01*
X7874624Y-13335000D01*
X6731000Y-13335000D01*
X6477000Y-13335000D01*
X5333376Y-13335000D01*
X5212091Y-13557040D01*
X4023981Y-13557040D01*
X4045851Y-13335000D01*
X4016916Y-13041223D01*
X3961628Y-12858960D01*
X5212091Y-12858960D01*
X5333376Y-13081000D01*
X6477000Y-13081000D01*
X6477000Y-11938085D01*
X6731000Y-11938085D01*
X6731000Y-13081000D01*
X7874624Y-13081000D01*
X7995909Y-12858960D01*
X7901070Y-12594119D01*
X7756385Y-12352869D01*
X7567414Y-12144481D01*
X7341420Y-11976963D01*
X7087087Y-11856754D01*
X6953039Y-11816096D01*
X6731000Y-11938085D01*
X6477000Y-11938085D01*
X6254961Y-11816096D01*
X6120913Y-11856754D01*
X5866580Y-11976963D01*
X5640586Y-12144481D01*
X5451615Y-12352869D01*
X5306930Y-12594119D01*
X5212091Y-12858960D01*
X3961628Y-12858960D01*
X3931225Y-12758736D01*
X3792069Y-12498394D01*
X3604797Y-12270203D01*
X3376606Y-12082931D01*
X3116264Y-11943775D01*
X2833777Y-11858084D01*
X2613619Y-11836400D01*
X2466381Y-11836400D01*
X2246223Y-11858084D01*
X1963736Y-11943775D01*
X1703394Y-12082931D01*
X1475203Y-12270203D01*
X1330930Y-12446000D01*
X1209070Y-12446000D01*
X1064797Y-12270203D01*
X836606Y-12082931D01*
X576264Y-11943775D01*
X293777Y-11858084D01*
X73619Y-11836400D01*
X-73619Y-11836400D01*
X-293777Y-11858084D01*
X-576264Y-11943775D01*
X-836606Y-12082931D01*
X-1064797Y-12270203D01*
X-1204967Y-12441000D01*
X-3076341Y-12441000D01*
X-3120001Y-12436700D01*
X-3163661Y-12441000D01*
X-3163667Y-12441000D01*
X-3261076Y-12450594D01*
X-3294276Y-12453864D01*
X-3395942Y-12484704D01*
X-3461851Y-12504697D01*
X-3616291Y-12587247D01*
X-3751659Y-12698341D01*
X-3779499Y-12732264D01*
X-5657741Y-14610506D01*
X-5691658Y-14638341D01*
X-5719493Y-14672258D01*
X-5719495Y-14672260D01*
X-5802752Y-14773709D01*
X-5885302Y-14928148D01*
X-5936136Y-15095726D01*
X-5953300Y-15270000D01*
X-5948999Y-15313670D01*
X-5949000Y-31665696D01*
X-6155134Y-31834866D01*
X-6340706Y-32060986D01*
X-6370000Y-32115791D01*
X-6399294Y-32060986D01*
X-6584866Y-31834866D01*
X-6810986Y-31649294D01*
X-7068966Y-31511401D01*
X-7348889Y-31426487D01*
X-7567050Y-31405000D01*
X-7712950Y-31405000D01*
X-7931111Y-31426487D01*
X-8211034Y-31511401D01*
X-8469014Y-31649294D01*
X-8695134Y-31834866D01*
X-8880706Y-32060986D01*
X-9018599Y-32318966D01*
X-9103513Y-32598889D01*
X-9132185Y-32890000D01*
X-9500000Y-32890000D01*
X-9500000Y-2896890D01*
X-1441476Y-2896890D01*
X-1396825Y-3044099D01*
X-1271641Y-3306920D01*
X-1097588Y-3540269D01*
X-881355Y-3735178D01*
X-631252Y-3884157D01*
X-356891Y-3981481D01*
X-127000Y-3860814D01*
X-127000Y-2667000D01*
X127000Y-2667000D01*
X127000Y-3860814D01*
X356891Y-3981481D01*
X631252Y-3884157D01*
X881355Y-3735178D01*
X1097588Y-3540269D01*
X1271641Y-3306920D01*
X1396825Y-3044099D01*
X1441476Y-2896890D01*
X1320155Y-2667000D01*
X127000Y-2667000D01*
X-127000Y-2667000D01*
X-1320155Y-2667000D01*
X-1441476Y-2896890D01*
X-9500000Y-2896890D01*
X-9500000Y850000D01*
X-1488072Y850000D01*
X-1488072Y-850000D01*
X-1475812Y-974482D01*
X-1439502Y-1094180D01*
X-1380537Y-1204494D01*
X-1301185Y-1301185D01*
X-1204494Y-1380537D01*
X-1094180Y-1439502D01*
X-1013534Y-1463966D01*
X-1097588Y-1539731D01*
X-1271641Y-1773080D01*
X-1396825Y-2035901D01*
X-1441476Y-2183110D01*
X-1320155Y-2413000D01*
X-127000Y-2413000D01*
X-127000Y-2393000D01*
X127000Y-2393000D01*
X127000Y-2413000D01*
X1320155Y-2413000D01*
X1441476Y-2183110D01*
X1396825Y-2035901D01*
X1271641Y-1773080D01*
X1097588Y-1539731D01*
X1013534Y-1463966D01*
X1094180Y-1439502D01*
X1204494Y-1380537D01*
X1301185Y-1301185D01*
X1380537Y-1204494D01*
X1439502Y-1094180D01*
X1475812Y-974482D01*
X1484231Y-889000D01*
X3541928Y-889000D01*
X3541928Y-900000D01*
X3554188Y-1024482D01*
X3590498Y-1144180D01*
X3649463Y-1254494D01*
X3728815Y-1351185D01*
X3825506Y-1430537D01*
X3935820Y-1489502D01*
X3954127Y-1495056D01*
X3887688Y-1561495D01*
X3719701Y-1812905D01*
X3603989Y-2092257D01*
X3545000Y-2388816D01*
X3545000Y-2691184D01*
X3603989Y-2987743D01*
X3719701Y-3267095D01*
X3887688Y-3518505D01*
X4101495Y-3732312D01*
X4320000Y-3878313D01*
X4320000Y-4026677D01*
X4316324Y-4064000D01*
X4320000Y-4101322D01*
X4320000Y-4101332D01*
X4330997Y-4212985D01*
X4362343Y-4316320D01*
X4374454Y-4356246D01*
X4445026Y-4488276D01*
X4484871Y-4536826D01*
X4539999Y-4604001D01*
X4569002Y-4627803D01*
X5205312Y-5264114D01*
X5169000Y-5446665D01*
X5169000Y-5729335D01*
X5224147Y-6006574D01*
X5332320Y-6267727D01*
X5489363Y-6502759D01*
X5689241Y-6702637D01*
X5924273Y-6859680D01*
X6185426Y-6967853D01*
X6462665Y-7023000D01*
X6745335Y-7023000D01*
X7022574Y-6967853D01*
X7283727Y-6859680D01*
X7518759Y-6702637D01*
X7718637Y-6502759D01*
X7875680Y-6267727D01*
X7983853Y-6006574D01*
X8039000Y-5729335D01*
X8039000Y-5446665D01*
X7983853Y-5169426D01*
X7875680Y-4908273D01*
X7718637Y-4673241D01*
X7518759Y-4473363D01*
X7283727Y-4316320D01*
X7022574Y-4208147D01*
X6745335Y-4153000D01*
X6462665Y-4153000D01*
X6280114Y-4189312D01*
X5917398Y-3826597D01*
X6058505Y-3732312D01*
X6272312Y-3518505D01*
X6440299Y-3267095D01*
X6556011Y-2987743D01*
X6574082Y-2896890D01*
X8718524Y-2896890D01*
X8763175Y-3044099D01*
X8888359Y-3306920D01*
X9062412Y-3540269D01*
X9278645Y-3735178D01*
X9528748Y-3884157D01*
X9803109Y-3981481D01*
X10033000Y-3860814D01*
X10033000Y-2667000D01*
X10287000Y-2667000D01*
X10287000Y-3860814D01*
X10516891Y-3981481D01*
X10791252Y-3884157D01*
X11041355Y-3735178D01*
X11257588Y-3540269D01*
X11431641Y-3306920D01*
X11556825Y-3044099D01*
X11601476Y-2896890D01*
X11480155Y-2667000D01*
X10287000Y-2667000D01*
X10033000Y-2667000D01*
X8839845Y-2667000D01*
X8718524Y-2896890D01*
X6574082Y-2896890D01*
X6615000Y-2691184D01*
X6615000Y-2388816D01*
X6556011Y-2092257D01*
X6440299Y-1812905D01*
X6272312Y-1561495D01*
X6205873Y-1495056D01*
X6224180Y-1489502D01*
X6334494Y-1430537D01*
X6431185Y-1351185D01*
X6510537Y-1254494D01*
X6569502Y-1144180D01*
X6605812Y-1024482D01*
X6618072Y-900000D01*
X6618072Y-889000D01*
X8675769Y-889000D01*
X8684188Y-974482D01*
X8720498Y-1094180D01*
X8779463Y-1204494D01*
X8858815Y-1301185D01*
X8955506Y-1380537D01*
X9065820Y-1439502D01*
X9146466Y-1463966D01*
X9062412Y-1539731D01*
X8888359Y-1773080D01*
X8763175Y-2035901D01*
X8718524Y-2183110D01*
X8839845Y-2413000D01*
X10033000Y-2413000D01*
X10033000Y-2393000D01*
X10287000Y-2393000D01*
X10287000Y-2413000D01*
X11480155Y-2413000D01*
X11601476Y-2183110D01*
X11556825Y-2035901D01*
X11431641Y-1773080D01*
X11257588Y-1539731D01*
X11173534Y-1463966D01*
X11254180Y-1439502D01*
X11364494Y-1380537D01*
X11461185Y-1301185D01*
X11540537Y-1204494D01*
X11599502Y-1094180D01*
X11635812Y-974482D01*
X11648072Y-850000D01*
X11648072Y850000D01*
X11635812Y974482D01*
X11599502Y1094180D01*
X11540537Y1204494D01*
X11461185Y1301185D01*
X11364494Y1380537D01*
X11254180Y1439502D01*
X11134482Y1475812D01*
X11010000Y1488072D01*
X9310000Y1488072D01*
X9185518Y1475812D01*
X9065820Y1439502D01*
X8955506Y1380537D01*
X8858815Y1301185D01*
X8779463Y1204494D01*
X8720498Y1094180D01*
X8684188Y974482D01*
X8675769Y889000D01*
X6618072Y889000D01*
X6618072Y900000D01*
X6605812Y1024482D01*
X6569502Y1144180D01*
X6510537Y1254494D01*
X6431185Y1351185D01*
X6334494Y1430537D01*
X6224180Y1489502D01*
X6104482Y1525812D01*
X5980000Y1538072D01*
X4180000Y1538072D01*
X4055518Y1525812D01*
X3935820Y1489502D01*
X3825506Y1430537D01*
X3728815Y1351185D01*
X3649463Y1254494D01*
X3590498Y1144180D01*
X3554188Y1024482D01*
X3541928Y900000D01*
X3541928Y889000D01*
X1484231Y889000D01*
X1475812Y974482D01*
X1439502Y1094180D01*
X1380537Y1204494D01*
X1301185Y1301185D01*
X1204494Y1380537D01*
X1094180Y1439502D01*
X974482Y1475812D01*
X850000Y1488072D01*
X-850000Y1488072D01*
X-974482Y1475812D01*
X-1094180Y1439502D01*
X-1204494Y1380537D01*
X-1301185Y1301185D01*
X-1380537Y1204494D01*
X-1439502Y1094180D01*
X-1475812Y974482D01*
X-1488072Y850000D01*
X-9500000Y850000D01*
X-9500000Y1880000D01*
X12040000Y1880000D01*
X12040001Y-48870000D01*
M02*
