G04 #@! TF.GenerationSoftware,KiCad,Pcbnew,(5.1.2)-2*
G04 #@! TF.CreationDate,2020-04-18T03:55:01-07:00*
G04 #@! TF.ProjectId,eurorackPower10pin,6575726f-7261-4636-9b50-6f7765723130,rev?*
G04 #@! TF.SameCoordinates,Original*
G04 #@! TF.FileFunction,Legend,Bot*
G04 #@! TF.FilePolarity,Positive*
%FSLAX46Y46*%
G04 Gerber Fmt 4.6, Leading zero omitted, Abs format (unit mm)*
G04 Created by KiCad (PCBNEW (5.1.2)-2) date 2020-04-18 03:55:01*
%MOMM*%
%LPD*%
G04 APERTURE LIST*
%ADD10C,0.150000*%
G04 APERTURE END LIST*
D10*
X-8055619Y870976D02*
X-8531809Y1204309D01*
X-8055619Y1442404D02*
X-9055619Y1442404D01*
X-9055619Y1061452D01*
X-9008000Y966214D01*
X-8960380Y918595D01*
X-8865142Y870976D01*
X-8722285Y870976D01*
X-8627047Y918595D01*
X-8579428Y966214D01*
X-8531809Y1061452D01*
X-8531809Y1442404D01*
X-8103238Y61452D02*
X-8055619Y156690D01*
X-8055619Y347166D01*
X-8103238Y442404D01*
X-8198476Y490023D01*
X-8579428Y490023D01*
X-8674666Y442404D01*
X-8722285Y347166D01*
X-8722285Y156690D01*
X-8674666Y61452D01*
X-8579428Y13833D01*
X-8484190Y13833D01*
X-8388952Y490023D01*
X-8722285Y-319500D02*
X-8055619Y-557595D01*
X-8722285Y-795690D01*
X-8055619Y-2462357D02*
X-8055619Y-1890928D01*
X-8055619Y-2176642D02*
X-9055619Y-2176642D01*
X-8912761Y-2081404D01*
X-8817523Y-1986166D01*
X-8769904Y-1890928D01*
X-8150857Y-2890928D02*
X-8103238Y-2938547D01*
X-8055619Y-2890928D01*
X-8103238Y-2843309D01*
X-8150857Y-2890928D01*
X-8055619Y-2890928D01*
X-8055619Y-3890928D02*
X-8055619Y-3319500D01*
X-8055619Y-3605214D02*
X-9055619Y-3605214D01*
X-8912761Y-3509976D01*
X-8817523Y-3414738D01*
X-8769904Y-3319500D01*
X-7405619Y1156690D02*
X-6691333Y1156690D01*
X-6548476Y1204309D01*
X-6453238Y1299547D01*
X-6405619Y1442404D01*
X-6405619Y1537642D01*
X-6405619Y537642D02*
X-6453238Y632880D01*
X-6500857Y680500D01*
X-6596095Y728119D01*
X-6881809Y728119D01*
X-6977047Y680500D01*
X-7024666Y632880D01*
X-7072285Y537642D01*
X-7072285Y394785D01*
X-7024666Y299547D01*
X-6977047Y251928D01*
X-6881809Y204309D01*
X-6596095Y204309D01*
X-6500857Y251928D01*
X-6453238Y299547D01*
X-6405619Y394785D01*
X-6405619Y537642D01*
X-6405619Y-224261D02*
X-7405619Y-224261D01*
X-6405619Y-652833D02*
X-6929428Y-652833D01*
X-7024666Y-605214D01*
X-7072285Y-509976D01*
X-7072285Y-367119D01*
X-7024666Y-271880D01*
X-6977047Y-224261D01*
X-7072285Y-1129023D02*
X-6405619Y-1129023D01*
X-6977047Y-1129023D02*
X-7024666Y-1176642D01*
X-7072285Y-1271880D01*
X-7072285Y-1414738D01*
X-7024666Y-1509976D01*
X-6929428Y-1557595D01*
X-6405619Y-1557595D01*
X-6453238Y-2748071D02*
X-6405619Y-2890928D01*
X-6405619Y-3129023D01*
X-6453238Y-3224261D01*
X-6500857Y-3271880D01*
X-6596095Y-3319500D01*
X-6691333Y-3319500D01*
X-6786571Y-3271880D01*
X-6834190Y-3224261D01*
X-6881809Y-3129023D01*
X-6929428Y-2938547D01*
X-6977047Y-2843309D01*
X-7024666Y-2795690D01*
X-7119904Y-2748071D01*
X-7215142Y-2748071D01*
X-7310380Y-2795690D01*
X-7358000Y-2843309D01*
X-7405619Y-2938547D01*
X-7405619Y-3176642D01*
X-7358000Y-3319500D01*
X-7072285Y-4176642D02*
X-6072285Y-4176642D01*
X-6453238Y-4176642D02*
X-6405619Y-4081404D01*
X-6405619Y-3890928D01*
X-6453238Y-3795690D01*
X-6500857Y-3748071D01*
X-6596095Y-3700452D01*
X-6881809Y-3700452D01*
X-6977047Y-3748071D01*
X-7024666Y-3795690D01*
X-7072285Y-3890928D01*
X-7072285Y-4081404D01*
X-7024666Y-4176642D01*
X-7072285Y-5081404D02*
X-6405619Y-5081404D01*
X-7072285Y-4652833D02*
X-6548476Y-4652833D01*
X-6453238Y-4700452D01*
X-6405619Y-4795690D01*
X-6405619Y-4938547D01*
X-6453238Y-5033785D01*
X-6500857Y-5081404D01*
X-6405619Y-5557595D02*
X-7072285Y-5557595D01*
X-7405619Y-5557595D02*
X-7358000Y-5509976D01*
X-7310380Y-5557595D01*
X-7358000Y-5605214D01*
X-7405619Y-5557595D01*
X-7310380Y-5557595D01*
X-6405619Y-6033785D02*
X-7405619Y-6033785D01*
X-7024666Y-6033785D02*
X-7072285Y-6129023D01*
X-7072285Y-6319500D01*
X-7024666Y-6414738D01*
X-6977047Y-6462357D01*
X-6881809Y-6509976D01*
X-6596095Y-6509976D01*
X-6500857Y-6462357D01*
X-6453238Y-6414738D01*
X-6405619Y-6319500D01*
X-6405619Y-6129023D01*
X-6453238Y-6033785D01*
X-6405619Y-6938547D02*
X-7405619Y-6938547D01*
X-7024666Y-6938547D02*
X-7072285Y-7033785D01*
X-7072285Y-7224261D01*
X-7024666Y-7319500D01*
X-6977047Y-7367119D01*
X-6881809Y-7414738D01*
X-6596095Y-7414738D01*
X-6500857Y-7367119D01*
X-6453238Y-7319500D01*
X-6405619Y-7224261D01*
X-6405619Y-7033785D01*
X-6453238Y-6938547D01*
X-4755619Y918595D02*
X-4755619Y1490023D01*
X-4755619Y1204309D02*
X-5755619Y1204309D01*
X-5612761Y1299547D01*
X-5517523Y1394785D01*
X-5469904Y1490023D01*
X-5327047Y347166D02*
X-5374666Y442404D01*
X-5422285Y490023D01*
X-5517523Y537642D01*
X-5565142Y537642D01*
X-5660380Y490023D01*
X-5708000Y442404D01*
X-5755619Y347166D01*
X-5755619Y156690D01*
X-5708000Y61452D01*
X-5660380Y13833D01*
X-5565142Y-33785D01*
X-5517523Y-33785D01*
X-5422285Y13833D01*
X-5374666Y61452D01*
X-5327047Y156690D01*
X-5327047Y347166D01*
X-5279428Y442404D01*
X-5231809Y490023D01*
X-5136571Y537642D01*
X-4946095Y537642D01*
X-4850857Y490023D01*
X-4803238Y442404D01*
X-4755619Y347166D01*
X-4755619Y156690D01*
X-4803238Y61452D01*
X-4850857Y13833D01*
X-4946095Y-33785D01*
X-5136571Y-33785D01*
X-5231809Y13833D01*
X-5279428Y61452D01*
X-5327047Y156690D01*
X-5041333Y-414738D02*
X-5041333Y-890928D01*
X-4755619Y-319500D02*
X-5755619Y-652833D01*
X-4755619Y-986166D01*
X-4755619Y-1319500D02*
X-5755619Y-1319500D01*
X-5755619Y-1700452D01*
X-5708000Y-1795690D01*
X-5660380Y-1843309D01*
X-5565142Y-1890928D01*
X-5422285Y-1890928D01*
X-5327047Y-1843309D01*
X-5279428Y-1795690D01*
X-5231809Y-1700452D01*
X-5231809Y-1319500D01*
X-4755619Y-2890928D02*
X-5231809Y-2557595D01*
X-4755619Y-2319500D02*
X-5755619Y-2319500D01*
X-5755619Y-2700452D01*
X-5708000Y-2795690D01*
X-5660380Y-2843309D01*
X-5565142Y-2890928D01*
X-5422285Y-2890928D01*
X-5327047Y-2843309D01*
X-5279428Y-2795690D01*
X-5231809Y-2700452D01*
X-5231809Y-2319500D01*
X-5660380Y-3271880D02*
X-5708000Y-3319500D01*
X-5755619Y-3414738D01*
X-5755619Y-3652833D01*
X-5708000Y-3748071D01*
X-5660380Y-3795690D01*
X-5565142Y-3843309D01*
X-5469904Y-3843309D01*
X-5327047Y-3795690D01*
X-4755619Y-3224261D01*
X-4755619Y-3843309D01*
X-5755619Y-4462357D02*
X-5755619Y-4557595D01*
X-5708000Y-4652833D01*
X-5660380Y-4700452D01*
X-5565142Y-4748071D01*
X-5374666Y-4795690D01*
X-5136571Y-4795690D01*
X-4946095Y-4748071D01*
X-4850857Y-4700452D01*
X-4803238Y-4652833D01*
X-4755619Y-4557595D01*
X-4755619Y-4462357D01*
X-4803238Y-4367119D01*
X-4850857Y-4319500D01*
X-4946095Y-4271880D01*
X-5136571Y-4224261D01*
X-5374666Y-4224261D01*
X-5565142Y-4271880D01*
X-5660380Y-4319500D01*
X-5708000Y-4367119D01*
X-5755619Y-4462357D01*
X-5660380Y-5176642D02*
X-5708000Y-5224261D01*
X-5755619Y-5319500D01*
X-5755619Y-5557595D01*
X-5708000Y-5652833D01*
X-5660380Y-5700452D01*
X-5565142Y-5748071D01*
X-5469904Y-5748071D01*
X-5327047Y-5700452D01*
X-4755619Y-5129023D01*
X-4755619Y-5748071D01*
X-5755619Y-6367119D02*
X-5755619Y-6462357D01*
X-5708000Y-6557595D01*
X-5660380Y-6605214D01*
X-5565142Y-6652833D01*
X-5374666Y-6700452D01*
X-5136571Y-6700452D01*
X-4946095Y-6652833D01*
X-4850857Y-6605214D01*
X-4803238Y-6557595D01*
X-4755619Y-6462357D01*
X-4755619Y-6367119D01*
X-4803238Y-6271880D01*
X-4850857Y-6224261D01*
X-4946095Y-6176642D01*
X-5136571Y-6129023D01*
X-5374666Y-6129023D01*
X-5565142Y-6176642D01*
X-5660380Y-6224261D01*
X-5708000Y-6271880D01*
X-5755619Y-6367119D01*
M02*
