G04 #@! TF.GenerationSoftware,KiCad,Pcbnew,(5.1.2)-2*
G04 #@! TF.CreationDate,2020-04-18T03:55:01-07:00*
G04 #@! TF.ProjectId,eurorackPower10pin,6575726f-7261-4636-9b50-6f7765723130,rev?*
G04 #@! TF.SameCoordinates,Original*
G04 #@! TF.FileFunction,Legend,Top*
G04 #@! TF.FilePolarity,Positive*
%FSLAX46Y46*%
G04 Gerber Fmt 4.6, Leading zero omitted, Abs format (unit mm)*
G04 Created by KiCad (PCBNEW (5.1.2)-2) date 2020-04-18 03:55:01*
%MOMM*%
%LPD*%
G04 APERTURE LIST*
%ADD10C,0.150000*%
%ADD11C,0.203200*%
%ADD12C,0.254000*%
%ADD13C,0.120000*%
G04 APERTURE END LIST*
D10*
X3061904Y-3266666D02*
X3538095Y-3266666D01*
X2966666Y-3552380D02*
X3300000Y-2552380D01*
X3633333Y-3552380D01*
X2961904Y-43996666D02*
X3438095Y-43996666D01*
X2866666Y-44282380D02*
X3200000Y-43282380D01*
X3533333Y-44282380D01*
X-745904Y-26233428D02*
X16000Y-26233428D01*
X1016000Y-26614380D02*
X444571Y-26614380D01*
X730285Y-26614380D02*
X730285Y-25614380D01*
X635047Y-25757238D01*
X539809Y-25852476D01*
X444571Y-25900095D01*
X1396952Y-25709619D02*
X1444571Y-25662000D01*
X1539809Y-25614380D01*
X1777904Y-25614380D01*
X1873142Y-25662000D01*
X1920761Y-25709619D01*
X1968380Y-25804857D01*
X1968380Y-25900095D01*
X1920761Y-26042952D01*
X1349333Y-26614380D01*
X1968380Y-26614380D01*
X2254095Y-25614380D02*
X2587428Y-26614380D01*
X2920761Y-25614380D01*
D11*
X6691085Y-40840539D02*
X6691085Y-40417205D01*
X7356323Y-40235777D02*
X7356323Y-40840539D01*
X6086323Y-40840539D01*
X6086323Y-40235777D01*
X6509657Y-39147205D02*
X7356323Y-39147205D01*
X6509657Y-39691491D02*
X7174895Y-39691491D01*
X7295847Y-39631015D01*
X7356323Y-39510062D01*
X7356323Y-39328634D01*
X7295847Y-39207681D01*
X7235371Y-39147205D01*
X7356323Y-38542443D02*
X6509657Y-38542443D01*
X6751561Y-38542443D02*
X6630609Y-38481967D01*
X6570133Y-38421491D01*
X6509657Y-38300539D01*
X6509657Y-38179586D01*
X7356323Y-37574824D02*
X7295847Y-37695777D01*
X7235371Y-37756253D01*
X7114419Y-37816729D01*
X6751561Y-37816729D01*
X6630609Y-37756253D01*
X6570133Y-37695777D01*
X6509657Y-37574824D01*
X6509657Y-37393396D01*
X6570133Y-37272443D01*
X6630609Y-37211967D01*
X6751561Y-37151491D01*
X7114419Y-37151491D01*
X7235371Y-37211967D01*
X7295847Y-37272443D01*
X7356323Y-37393396D01*
X7356323Y-37574824D01*
X7356323Y-36607205D02*
X6509657Y-36607205D01*
X6751561Y-36607205D02*
X6630609Y-36546729D01*
X6570133Y-36486253D01*
X6509657Y-36365300D01*
X6509657Y-36244348D01*
X7356323Y-35276729D02*
X6691085Y-35276729D01*
X6570133Y-35337205D01*
X6509657Y-35458158D01*
X6509657Y-35700062D01*
X6570133Y-35821015D01*
X7295847Y-35276729D02*
X7356323Y-35397681D01*
X7356323Y-35700062D01*
X7295847Y-35821015D01*
X7174895Y-35881491D01*
X7053942Y-35881491D01*
X6932990Y-35821015D01*
X6872514Y-35700062D01*
X6872514Y-35397681D01*
X6812038Y-35276729D01*
X7295847Y-34127681D02*
X7356323Y-34248634D01*
X7356323Y-34490539D01*
X7295847Y-34611491D01*
X7235371Y-34671967D01*
X7114419Y-34732443D01*
X6751561Y-34732443D01*
X6630609Y-34671967D01*
X6570133Y-34611491D01*
X6509657Y-34490539D01*
X6509657Y-34248634D01*
X6570133Y-34127681D01*
X7356323Y-33583396D02*
X6086323Y-33583396D01*
X6872514Y-33462443D02*
X7356323Y-33099586D01*
X6509657Y-33099586D02*
X6993466Y-33583396D01*
X9464523Y-40840539D02*
X8194523Y-40840539D01*
X8194523Y-40356729D01*
X8255000Y-40235777D01*
X8315476Y-40175300D01*
X8436428Y-40114824D01*
X8617857Y-40114824D01*
X8738809Y-40175300D01*
X8799285Y-40235777D01*
X8859761Y-40356729D01*
X8859761Y-40840539D01*
X9464523Y-39389110D02*
X9404047Y-39510062D01*
X9343571Y-39570539D01*
X9222619Y-39631015D01*
X8859761Y-39631015D01*
X8738809Y-39570539D01*
X8678333Y-39510062D01*
X8617857Y-39389110D01*
X8617857Y-39207681D01*
X8678333Y-39086729D01*
X8738809Y-39026253D01*
X8859761Y-38965777D01*
X9222619Y-38965777D01*
X9343571Y-39026253D01*
X9404047Y-39086729D01*
X9464523Y-39207681D01*
X9464523Y-39389110D01*
X8617857Y-38542443D02*
X9464523Y-38300539D01*
X8859761Y-38058634D01*
X9464523Y-37816729D01*
X8617857Y-37574824D01*
X9404047Y-36607205D02*
X9464523Y-36728158D01*
X9464523Y-36970062D01*
X9404047Y-37091015D01*
X9283095Y-37151491D01*
X8799285Y-37151491D01*
X8678333Y-37091015D01*
X8617857Y-36970062D01*
X8617857Y-36728158D01*
X8678333Y-36607205D01*
X8799285Y-36546729D01*
X8920238Y-36546729D01*
X9041190Y-37151491D01*
X9464523Y-36002443D02*
X8617857Y-36002443D01*
X8859761Y-36002443D02*
X8738809Y-35941967D01*
X8678333Y-35881491D01*
X8617857Y-35760539D01*
X8617857Y-35639586D01*
X10907485Y-40417205D02*
X10967961Y-40235777D01*
X11028438Y-40175300D01*
X11149390Y-40114824D01*
X11330819Y-40114824D01*
X11451771Y-40175300D01*
X11512247Y-40235777D01*
X11572723Y-40356729D01*
X11572723Y-40840539D01*
X10302723Y-40840539D01*
X10302723Y-40417205D01*
X10363200Y-40296253D01*
X10423676Y-40235777D01*
X10544628Y-40175300D01*
X10665580Y-40175300D01*
X10786533Y-40235777D01*
X10847009Y-40296253D01*
X10907485Y-40417205D01*
X10907485Y-40840539D01*
X11572723Y-39570539D02*
X10726057Y-39570539D01*
X10967961Y-39570539D02*
X10847009Y-39510062D01*
X10786533Y-39449586D01*
X10726057Y-39328634D01*
X10726057Y-39207681D01*
X11512247Y-38300539D02*
X11572723Y-38421491D01*
X11572723Y-38663396D01*
X11512247Y-38784348D01*
X11391295Y-38844824D01*
X10907485Y-38844824D01*
X10786533Y-38784348D01*
X10726057Y-38663396D01*
X10726057Y-38421491D01*
X10786533Y-38300539D01*
X10907485Y-38240062D01*
X11028438Y-38240062D01*
X11149390Y-38844824D01*
X11572723Y-37151491D02*
X10907485Y-37151491D01*
X10786533Y-37211967D01*
X10726057Y-37332920D01*
X10726057Y-37574824D01*
X10786533Y-37695777D01*
X11512247Y-37151491D02*
X11572723Y-37272443D01*
X11572723Y-37574824D01*
X11512247Y-37695777D01*
X11391295Y-37756253D01*
X11270342Y-37756253D01*
X11149390Y-37695777D01*
X11088914Y-37574824D01*
X11088914Y-37272443D01*
X11028438Y-37151491D01*
X11572723Y-36546729D02*
X10302723Y-36546729D01*
X11088914Y-36425777D02*
X11572723Y-36062920D01*
X10726057Y-36062920D02*
X11209866Y-36546729D01*
X11572723Y-35337205D02*
X11512247Y-35458158D01*
X11451771Y-35518634D01*
X11330819Y-35579110D01*
X10967961Y-35579110D01*
X10847009Y-35518634D01*
X10786533Y-35458158D01*
X10726057Y-35337205D01*
X10726057Y-35155777D01*
X10786533Y-35034824D01*
X10847009Y-34974348D01*
X10967961Y-34913872D01*
X11330819Y-34913872D01*
X11451771Y-34974348D01*
X11512247Y-35034824D01*
X11572723Y-35155777D01*
X11572723Y-35337205D01*
X10726057Y-33825300D02*
X11572723Y-33825300D01*
X10726057Y-34369586D02*
X11391295Y-34369586D01*
X11512247Y-34309110D01*
X11572723Y-34188158D01*
X11572723Y-34006729D01*
X11512247Y-33885777D01*
X11451771Y-33825300D01*
X10726057Y-33401967D02*
X10726057Y-32918158D01*
X10302723Y-33220539D02*
X11391295Y-33220539D01*
X11512247Y-33160062D01*
X11572723Y-33039110D01*
X11572723Y-32918158D01*
D12*
X-6398381Y-46482000D02*
X-6519333Y-46421523D01*
X-6700762Y-46421523D01*
X-6882190Y-46482000D01*
X-7003142Y-46602952D01*
X-7063619Y-46723904D01*
X-7124095Y-46965809D01*
X-7124095Y-47147238D01*
X-7063619Y-47389142D01*
X-7003142Y-47510095D01*
X-6882190Y-47631047D01*
X-6700762Y-47691523D01*
X-6579809Y-47691523D01*
X-6398381Y-47631047D01*
X-6337904Y-47570571D01*
X-6337904Y-47147238D01*
X-6579809Y-47147238D01*
X-5793619Y-47691523D02*
X-5793619Y-46421523D01*
X-5067904Y-47691523D01*
X-5067904Y-46421523D01*
X-4463142Y-47691523D02*
X-4463142Y-46421523D01*
X-4160762Y-46421523D01*
X-3979333Y-46482000D01*
X-3858381Y-46602952D01*
X-3797904Y-46723904D01*
X-3737428Y-46965809D01*
X-3737428Y-47147238D01*
X-3797904Y-47389142D01*
X-3858381Y-47510095D01*
X-3979333Y-47631047D01*
X-4160762Y-47691523D01*
X-4463142Y-47691523D01*
X-8273143Y-44540714D02*
X-7305524Y-44540714D01*
X-7789333Y-45024523D02*
X-7789333Y-44056904D01*
X-6035524Y-45024523D02*
X-6761238Y-45024523D01*
X-6398381Y-45024523D02*
X-6398381Y-43754523D01*
X-6519333Y-43935952D01*
X-6640285Y-44056904D01*
X-6761238Y-44117380D01*
X-5551714Y-43875476D02*
X-5491238Y-43815000D01*
X-5370285Y-43754523D01*
X-5067904Y-43754523D01*
X-4946952Y-43815000D01*
X-4886476Y-43875476D01*
X-4826000Y-43996428D01*
X-4826000Y-44117380D01*
X-4886476Y-44298809D01*
X-5612190Y-45024523D01*
X-4826000Y-45024523D01*
X-4463143Y-43754523D02*
X-4039809Y-45024523D01*
X-3616476Y-43754523D01*
X-6398381Y-2032000D02*
X-6519333Y-1971523D01*
X-6700762Y-1971523D01*
X-6882190Y-2032000D01*
X-7003142Y-2152952D01*
X-7063619Y-2273904D01*
X-7124095Y-2515809D01*
X-7124095Y-2697238D01*
X-7063619Y-2939142D01*
X-7003142Y-3060095D01*
X-6882190Y-3181047D01*
X-6700762Y-3241523D01*
X-6579809Y-3241523D01*
X-6398381Y-3181047D01*
X-6337904Y-3120571D01*
X-6337904Y-2697238D01*
X-6579809Y-2697238D01*
X-5793619Y-3241523D02*
X-5793619Y-1971523D01*
X-5067904Y-3241523D01*
X-5067904Y-1971523D01*
X-4463142Y-3241523D02*
X-4463142Y-1971523D01*
X-4160762Y-1971523D01*
X-3979333Y-2032000D01*
X-3858381Y-2152952D01*
X-3797904Y-2273904D01*
X-3737428Y-2515809D01*
X-3737428Y-2697238D01*
X-3797904Y-2939142D01*
X-3858381Y-3060095D01*
X-3979333Y-3181047D01*
X-4160762Y-3241523D01*
X-4463142Y-3241523D01*
X-8273143Y-90714D02*
X-7305524Y-90714D01*
X-6035524Y-574523D02*
X-6761238Y-574523D01*
X-6398381Y-574523D02*
X-6398381Y695476D01*
X-6519333Y514047D01*
X-6640285Y393095D01*
X-6761238Y332619D01*
X-5551714Y574523D02*
X-5491238Y635000D01*
X-5370285Y695476D01*
X-5067904Y695476D01*
X-4946952Y635000D01*
X-4886476Y574523D01*
X-4826000Y453571D01*
X-4826000Y332619D01*
X-4886476Y151190D01*
X-5612190Y-574523D01*
X-4826000Y-574523D01*
X-4463143Y695476D02*
X-4039809Y-574523D01*
X-3616476Y695476D01*
D13*
X-1590000Y-16165000D02*
X-10940000Y-16165000D01*
X-1590000Y-20665000D02*
X-10940000Y-20665000D01*
X-1590000Y-7985000D02*
X-1590000Y-28845000D01*
X-1590000Y-7985000D02*
X-10940000Y-7985000D01*
X-1590000Y-28845000D02*
X-10940000Y-28845000D01*
X-10940000Y-28845000D02*
X-10940000Y-7985000D01*
X2540000Y-24765000D02*
X3810000Y-24765000D01*
X3810000Y-24765000D02*
X3810000Y-23495000D01*
X5234000Y-12668000D02*
X5564000Y-12668000D01*
X5234000Y-6128000D02*
X5234000Y-12668000D01*
X5564000Y-6128000D02*
X5234000Y-6128000D01*
X7974000Y-12668000D02*
X7644000Y-12668000D01*
X7974000Y-6128000D02*
X7974000Y-12668000D01*
X7644000Y-6128000D02*
X7974000Y-6128000D01*
X2440000Y-40100000D02*
X2770000Y-40100000D01*
X2440000Y-33560000D02*
X2440000Y-40100000D01*
X2770000Y-33560000D02*
X2440000Y-33560000D01*
X5180000Y-40100000D02*
X4850000Y-40100000D01*
X5180000Y-33560000D02*
X5180000Y-40100000D01*
X4850000Y-33560000D02*
X5180000Y-33560000D01*
X8830000Y-45720000D02*
X11490000Y-45720000D01*
X8830000Y-45720000D02*
X8830000Y-48320000D01*
X8830000Y-48320000D02*
X11490000Y-48320000D01*
X11490000Y-45720000D02*
X11490000Y-48320000D01*
X11490000Y-43120000D02*
X11490000Y-44450000D01*
X10160000Y-43120000D02*
X11490000Y-43120000D01*
X10160000Y1330000D02*
X11490000Y1330000D01*
X11490000Y1330000D02*
X11490000Y0D01*
X11490000Y-1270000D02*
X11490000Y-3870000D01*
X8830000Y-3870000D02*
X11490000Y-3870000D01*
X8830000Y-1270000D02*
X8830000Y-3870000D01*
X8830000Y-1270000D02*
X11490000Y-1270000D01*
X-1330000Y-45720000D02*
X1330000Y-45720000D01*
X-1330000Y-45720000D02*
X-1330000Y-48320000D01*
X-1330000Y-48320000D02*
X1330000Y-48320000D01*
X1330000Y-45720000D02*
X1330000Y-48320000D01*
X1330000Y-43120000D02*
X1330000Y-44450000D01*
X0Y-43120000D02*
X1330000Y-43120000D01*
X-1230000Y-32890000D02*
X-1230000Y-34220000D01*
X-1230000Y-34220000D02*
X-2560000Y-34220000D01*
X-3830000Y-34220000D02*
X-8970000Y-34220000D01*
X-8970000Y-31560000D02*
X-8970000Y-34220000D01*
X-3830000Y-31560000D02*
X-8970000Y-31560000D01*
X-3830000Y-31560000D02*
X-3830000Y-34220000D01*
X0Y1330000D02*
X1330000Y1330000D01*
X1330000Y1330000D02*
X1330000Y0D01*
X1330000Y-1270000D02*
X1330000Y-3870000D01*
X-1330000Y-3870000D02*
X1330000Y-3870000D01*
X-1330000Y-1270000D02*
X-1330000Y-3870000D01*
X-1330000Y-1270000D02*
X1330000Y-1270000D01*
X-8965000Y-38540000D02*
X-8965000Y-37210000D01*
X-8965000Y-37210000D02*
X-7635000Y-37210000D01*
X-6365000Y-37210000D02*
X-1225000Y-37210000D01*
X-1225000Y-39870000D02*
X-1225000Y-37210000D01*
X-6365000Y-39870000D02*
X-1225000Y-39870000D01*
X-6365000Y-39870000D02*
X-6365000Y-37210000D01*
X6160000Y-47280000D02*
X6316000Y-47280000D01*
X3844000Y-47280000D02*
X4000000Y-47280000D01*
X6159837Y-44678870D02*
G75*
G02X6160000Y-46760961I-1079837J-1041130D01*
G01*
X4000163Y-44678870D02*
G75*
G03X4000000Y-46760961I1079837J-1041130D01*
G01*
X6158608Y-44047665D02*
G75*
G02X6315516Y-47280000I-1078608J-1672335D01*
G01*
X4001392Y-44047665D02*
G75*
G03X3844484Y-47280000I1078608J-1672335D01*
G01*
X4000000Y290000D02*
X3844000Y290000D01*
X6316000Y290000D02*
X6160000Y290000D01*
X4000163Y-2311130D02*
G75*
G02X4000000Y-229039I1079837J1041130D01*
G01*
X6159837Y-2311130D02*
G75*
G03X6160000Y-229039I-1079837J1041130D01*
G01*
X4001392Y-2942335D02*
G75*
G02X3844484Y290000I1078608J1672335D01*
G01*
X6158608Y-2942335D02*
G75*
G03X6315516Y290000I-1078608J1672335D01*
G01*
X10615000Y-24730225D02*
X10115000Y-24730225D01*
X10365000Y-24480225D02*
X10365000Y-24980225D01*
X9174000Y-29886000D02*
X8606000Y-29886000D01*
X9408000Y-29846000D02*
X8372000Y-29846000D01*
X9567000Y-29806000D02*
X8213000Y-29806000D01*
X9695000Y-29766000D02*
X8085000Y-29766000D01*
X9805000Y-29726000D02*
X7975000Y-29726000D01*
X9901000Y-29686000D02*
X7879000Y-29686000D01*
X9988000Y-29646000D02*
X7792000Y-29646000D01*
X10068000Y-29606000D02*
X7712000Y-29606000D01*
X7850000Y-29566000D02*
X7639000Y-29566000D01*
X10141000Y-29566000D02*
X9930000Y-29566000D01*
X7850000Y-29526000D02*
X7571000Y-29526000D01*
X10209000Y-29526000D02*
X9930000Y-29526000D01*
X7850000Y-29486000D02*
X7507000Y-29486000D01*
X10273000Y-29486000D02*
X9930000Y-29486000D01*
X7850000Y-29446000D02*
X7447000Y-29446000D01*
X10333000Y-29446000D02*
X9930000Y-29446000D01*
X7850000Y-29406000D02*
X7390000Y-29406000D01*
X10390000Y-29406000D02*
X9930000Y-29406000D01*
X7850000Y-29366000D02*
X7336000Y-29366000D01*
X10444000Y-29366000D02*
X9930000Y-29366000D01*
X7850000Y-29326000D02*
X7285000Y-29326000D01*
X10495000Y-29326000D02*
X9930000Y-29326000D01*
X7850000Y-29286000D02*
X7237000Y-29286000D01*
X10543000Y-29286000D02*
X9930000Y-29286000D01*
X7850000Y-29246000D02*
X7191000Y-29246000D01*
X10589000Y-29246000D02*
X9930000Y-29246000D01*
X7850000Y-29206000D02*
X7147000Y-29206000D01*
X10633000Y-29206000D02*
X9930000Y-29206000D01*
X7850000Y-29166000D02*
X7105000Y-29166000D01*
X10675000Y-29166000D02*
X9930000Y-29166000D01*
X7850000Y-29126000D02*
X7064000Y-29126000D01*
X10716000Y-29126000D02*
X9930000Y-29126000D01*
X7850000Y-29086000D02*
X7026000Y-29086000D01*
X10754000Y-29086000D02*
X9930000Y-29086000D01*
X7850000Y-29046000D02*
X6989000Y-29046000D01*
X10791000Y-29046000D02*
X9930000Y-29046000D01*
X7850000Y-29006000D02*
X6953000Y-29006000D01*
X10827000Y-29006000D02*
X9930000Y-29006000D01*
X7850000Y-28966000D02*
X6919000Y-28966000D01*
X10861000Y-28966000D02*
X9930000Y-28966000D01*
X7850000Y-28926000D02*
X6886000Y-28926000D01*
X10894000Y-28926000D02*
X9930000Y-28926000D01*
X7850000Y-28886000D02*
X6855000Y-28886000D01*
X10925000Y-28886000D02*
X9930000Y-28886000D01*
X7850000Y-28846000D02*
X6825000Y-28846000D01*
X10955000Y-28846000D02*
X9930000Y-28846000D01*
X7850000Y-28806000D02*
X6795000Y-28806000D01*
X10985000Y-28806000D02*
X9930000Y-28806000D01*
X7850000Y-28766000D02*
X6768000Y-28766000D01*
X11012000Y-28766000D02*
X9930000Y-28766000D01*
X7850000Y-28726000D02*
X6741000Y-28726000D01*
X11039000Y-28726000D02*
X9930000Y-28726000D01*
X7850000Y-28686000D02*
X6715000Y-28686000D01*
X11065000Y-28686000D02*
X9930000Y-28686000D01*
X7850000Y-28646000D02*
X6690000Y-28646000D01*
X11090000Y-28646000D02*
X9930000Y-28646000D01*
X7850000Y-28606000D02*
X6666000Y-28606000D01*
X11114000Y-28606000D02*
X9930000Y-28606000D01*
X7850000Y-28566000D02*
X6643000Y-28566000D01*
X11137000Y-28566000D02*
X9930000Y-28566000D01*
X7850000Y-28526000D02*
X6622000Y-28526000D01*
X11158000Y-28526000D02*
X9930000Y-28526000D01*
X7850000Y-28486000D02*
X6600000Y-28486000D01*
X11180000Y-28486000D02*
X9930000Y-28486000D01*
X7850000Y-28446000D02*
X6580000Y-28446000D01*
X11200000Y-28446000D02*
X9930000Y-28446000D01*
X7850000Y-28406000D02*
X6561000Y-28406000D01*
X11219000Y-28406000D02*
X9930000Y-28406000D01*
X7850000Y-28366000D02*
X6542000Y-28366000D01*
X11238000Y-28366000D02*
X9930000Y-28366000D01*
X7850000Y-28326000D02*
X6525000Y-28326000D01*
X11255000Y-28326000D02*
X9930000Y-28326000D01*
X7850000Y-28286000D02*
X6508000Y-28286000D01*
X11272000Y-28286000D02*
X9930000Y-28286000D01*
X7850000Y-28246000D02*
X6492000Y-28246000D01*
X11288000Y-28246000D02*
X9930000Y-28246000D01*
X7850000Y-28206000D02*
X6476000Y-28206000D01*
X11304000Y-28206000D02*
X9930000Y-28206000D01*
X7850000Y-28166000D02*
X6462000Y-28166000D01*
X11318000Y-28166000D02*
X9930000Y-28166000D01*
X7850000Y-28126000D02*
X6448000Y-28126000D01*
X11332000Y-28126000D02*
X9930000Y-28126000D01*
X7850000Y-28086000D02*
X6435000Y-28086000D01*
X11345000Y-28086000D02*
X9930000Y-28086000D01*
X7850000Y-28046000D02*
X6422000Y-28046000D01*
X11358000Y-28046000D02*
X9930000Y-28046000D01*
X7850000Y-28006000D02*
X6410000Y-28006000D01*
X11370000Y-28006000D02*
X9930000Y-28006000D01*
X7850000Y-27965000D02*
X6399000Y-27965000D01*
X11381000Y-27965000D02*
X9930000Y-27965000D01*
X7850000Y-27925000D02*
X6389000Y-27925000D01*
X11391000Y-27925000D02*
X9930000Y-27925000D01*
X7850000Y-27885000D02*
X6379000Y-27885000D01*
X11401000Y-27885000D02*
X9930000Y-27885000D01*
X7850000Y-27845000D02*
X6370000Y-27845000D01*
X11410000Y-27845000D02*
X9930000Y-27845000D01*
X7850000Y-27805000D02*
X6362000Y-27805000D01*
X11418000Y-27805000D02*
X9930000Y-27805000D01*
X7850000Y-27765000D02*
X6354000Y-27765000D01*
X11426000Y-27765000D02*
X9930000Y-27765000D01*
X7850000Y-27725000D02*
X6347000Y-27725000D01*
X11433000Y-27725000D02*
X9930000Y-27725000D01*
X7850000Y-27685000D02*
X6340000Y-27685000D01*
X11440000Y-27685000D02*
X9930000Y-27685000D01*
X7850000Y-27645000D02*
X6334000Y-27645000D01*
X11446000Y-27645000D02*
X9930000Y-27645000D01*
X7850000Y-27605000D02*
X6329000Y-27605000D01*
X11451000Y-27605000D02*
X9930000Y-27605000D01*
X7850000Y-27565000D02*
X6325000Y-27565000D01*
X11455000Y-27565000D02*
X9930000Y-27565000D01*
X7850000Y-27525000D02*
X6321000Y-27525000D01*
X11459000Y-27525000D02*
X9930000Y-27525000D01*
X11463000Y-27485000D02*
X6317000Y-27485000D01*
X11466000Y-27445000D02*
X6314000Y-27445000D01*
X11468000Y-27405000D02*
X6312000Y-27405000D01*
X11469000Y-27365000D02*
X6311000Y-27365000D01*
X11470000Y-27325000D02*
X6310000Y-27325000D01*
X11470000Y-27285000D02*
X6310000Y-27285000D01*
X11510000Y-27285000D02*
G75*
G03X11510000Y-27285000I-2620000J0D01*
G01*
X10615000Y-17110225D02*
X10115000Y-17110225D01*
X10365000Y-16860225D02*
X10365000Y-17360225D01*
X9174000Y-22266000D02*
X8606000Y-22266000D01*
X9408000Y-22226000D02*
X8372000Y-22226000D01*
X9567000Y-22186000D02*
X8213000Y-22186000D01*
X9695000Y-22146000D02*
X8085000Y-22146000D01*
X9805000Y-22106000D02*
X7975000Y-22106000D01*
X9901000Y-22066000D02*
X7879000Y-22066000D01*
X9988000Y-22026000D02*
X7792000Y-22026000D01*
X10068000Y-21986000D02*
X7712000Y-21986000D01*
X7850000Y-21946000D02*
X7639000Y-21946000D01*
X10141000Y-21946000D02*
X9930000Y-21946000D01*
X7850000Y-21906000D02*
X7571000Y-21906000D01*
X10209000Y-21906000D02*
X9930000Y-21906000D01*
X7850000Y-21866000D02*
X7507000Y-21866000D01*
X10273000Y-21866000D02*
X9930000Y-21866000D01*
X7850000Y-21826000D02*
X7447000Y-21826000D01*
X10333000Y-21826000D02*
X9930000Y-21826000D01*
X7850000Y-21786000D02*
X7390000Y-21786000D01*
X10390000Y-21786000D02*
X9930000Y-21786000D01*
X7850000Y-21746000D02*
X7336000Y-21746000D01*
X10444000Y-21746000D02*
X9930000Y-21746000D01*
X7850000Y-21706000D02*
X7285000Y-21706000D01*
X10495000Y-21706000D02*
X9930000Y-21706000D01*
X7850000Y-21666000D02*
X7237000Y-21666000D01*
X10543000Y-21666000D02*
X9930000Y-21666000D01*
X7850000Y-21626000D02*
X7191000Y-21626000D01*
X10589000Y-21626000D02*
X9930000Y-21626000D01*
X7850000Y-21586000D02*
X7147000Y-21586000D01*
X10633000Y-21586000D02*
X9930000Y-21586000D01*
X7850000Y-21546000D02*
X7105000Y-21546000D01*
X10675000Y-21546000D02*
X9930000Y-21546000D01*
X7850000Y-21506000D02*
X7064000Y-21506000D01*
X10716000Y-21506000D02*
X9930000Y-21506000D01*
X7850000Y-21466000D02*
X7026000Y-21466000D01*
X10754000Y-21466000D02*
X9930000Y-21466000D01*
X7850000Y-21426000D02*
X6989000Y-21426000D01*
X10791000Y-21426000D02*
X9930000Y-21426000D01*
X7850000Y-21386000D02*
X6953000Y-21386000D01*
X10827000Y-21386000D02*
X9930000Y-21386000D01*
X7850000Y-21346000D02*
X6919000Y-21346000D01*
X10861000Y-21346000D02*
X9930000Y-21346000D01*
X7850000Y-21306000D02*
X6886000Y-21306000D01*
X10894000Y-21306000D02*
X9930000Y-21306000D01*
X7850000Y-21266000D02*
X6855000Y-21266000D01*
X10925000Y-21266000D02*
X9930000Y-21266000D01*
X7850000Y-21226000D02*
X6825000Y-21226000D01*
X10955000Y-21226000D02*
X9930000Y-21226000D01*
X7850000Y-21186000D02*
X6795000Y-21186000D01*
X10985000Y-21186000D02*
X9930000Y-21186000D01*
X7850000Y-21146000D02*
X6768000Y-21146000D01*
X11012000Y-21146000D02*
X9930000Y-21146000D01*
X7850000Y-21106000D02*
X6741000Y-21106000D01*
X11039000Y-21106000D02*
X9930000Y-21106000D01*
X7850000Y-21066000D02*
X6715000Y-21066000D01*
X11065000Y-21066000D02*
X9930000Y-21066000D01*
X7850000Y-21026000D02*
X6690000Y-21026000D01*
X11090000Y-21026000D02*
X9930000Y-21026000D01*
X7850000Y-20986000D02*
X6666000Y-20986000D01*
X11114000Y-20986000D02*
X9930000Y-20986000D01*
X7850000Y-20946000D02*
X6643000Y-20946000D01*
X11137000Y-20946000D02*
X9930000Y-20946000D01*
X7850000Y-20906000D02*
X6622000Y-20906000D01*
X11158000Y-20906000D02*
X9930000Y-20906000D01*
X7850000Y-20866000D02*
X6600000Y-20866000D01*
X11180000Y-20866000D02*
X9930000Y-20866000D01*
X7850000Y-20826000D02*
X6580000Y-20826000D01*
X11200000Y-20826000D02*
X9930000Y-20826000D01*
X7850000Y-20786000D02*
X6561000Y-20786000D01*
X11219000Y-20786000D02*
X9930000Y-20786000D01*
X7850000Y-20746000D02*
X6542000Y-20746000D01*
X11238000Y-20746000D02*
X9930000Y-20746000D01*
X7850000Y-20706000D02*
X6525000Y-20706000D01*
X11255000Y-20706000D02*
X9930000Y-20706000D01*
X7850000Y-20666000D02*
X6508000Y-20666000D01*
X11272000Y-20666000D02*
X9930000Y-20666000D01*
X7850000Y-20626000D02*
X6492000Y-20626000D01*
X11288000Y-20626000D02*
X9930000Y-20626000D01*
X7850000Y-20586000D02*
X6476000Y-20586000D01*
X11304000Y-20586000D02*
X9930000Y-20586000D01*
X7850000Y-20546000D02*
X6462000Y-20546000D01*
X11318000Y-20546000D02*
X9930000Y-20546000D01*
X7850000Y-20506000D02*
X6448000Y-20506000D01*
X11332000Y-20506000D02*
X9930000Y-20506000D01*
X7850000Y-20466000D02*
X6435000Y-20466000D01*
X11345000Y-20466000D02*
X9930000Y-20466000D01*
X7850000Y-20426000D02*
X6422000Y-20426000D01*
X11358000Y-20426000D02*
X9930000Y-20426000D01*
X7850000Y-20386000D02*
X6410000Y-20386000D01*
X11370000Y-20386000D02*
X9930000Y-20386000D01*
X7850000Y-20345000D02*
X6399000Y-20345000D01*
X11381000Y-20345000D02*
X9930000Y-20345000D01*
X7850000Y-20305000D02*
X6389000Y-20305000D01*
X11391000Y-20305000D02*
X9930000Y-20305000D01*
X7850000Y-20265000D02*
X6379000Y-20265000D01*
X11401000Y-20265000D02*
X9930000Y-20265000D01*
X7850000Y-20225000D02*
X6370000Y-20225000D01*
X11410000Y-20225000D02*
X9930000Y-20225000D01*
X7850000Y-20185000D02*
X6362000Y-20185000D01*
X11418000Y-20185000D02*
X9930000Y-20185000D01*
X7850000Y-20145000D02*
X6354000Y-20145000D01*
X11426000Y-20145000D02*
X9930000Y-20145000D01*
X7850000Y-20105000D02*
X6347000Y-20105000D01*
X11433000Y-20105000D02*
X9930000Y-20105000D01*
X7850000Y-20065000D02*
X6340000Y-20065000D01*
X11440000Y-20065000D02*
X9930000Y-20065000D01*
X7850000Y-20025000D02*
X6334000Y-20025000D01*
X11446000Y-20025000D02*
X9930000Y-20025000D01*
X7850000Y-19985000D02*
X6329000Y-19985000D01*
X11451000Y-19985000D02*
X9930000Y-19985000D01*
X7850000Y-19945000D02*
X6325000Y-19945000D01*
X11455000Y-19945000D02*
X9930000Y-19945000D01*
X7850000Y-19905000D02*
X6321000Y-19905000D01*
X11459000Y-19905000D02*
X9930000Y-19905000D01*
X11463000Y-19865000D02*
X6317000Y-19865000D01*
X11466000Y-19825000D02*
X6314000Y-19825000D01*
X11468000Y-19785000D02*
X6312000Y-19785000D01*
X11469000Y-19745000D02*
X6311000Y-19745000D01*
X11470000Y-19705000D02*
X6310000Y-19705000D01*
X11470000Y-19665000D02*
X6310000Y-19665000D01*
X11510000Y-19665000D02*
G75*
G03X11510000Y-19665000I-2620000J0D01*
G01*
M02*
