M48
; DRILL file {KiCad (5.1.2)-2} date 4/18/2020 3:54:59 AM
; FORMAT={-:-/ absolute / inch / decimal}
; #@! TF.CreationDate,2020-04-18T03:54:59-07:00
; #@! TF.GenerationSoftware,Kicad,Pcbnew,(5.1.2)-2
; #@! TF.FileFunction,Plated,1,2,PTH
FMAT,2
INCH
T1C0.0315
T2C0.0354
T3C0.0394
T4C0.0400
%
G90
G05
T1
X0.35Y-0.725
X0.35Y-0.8234
X0.15Y-1.3
X0.15Y-1.6
X0.35Y-1.025
X0.35Y-1.1234
X0.26Y-0.22
X0.26Y-0.52
T2
X0.2Y0.0
X0.2Y-0.1
X0.2Y-1.75
X0.2Y-1.85
T3
X-0.3008Y-1.2949
X-0.2008Y-1.2949
X-0.1008Y-1.2949
X0.4Y-1.75
X0.4Y-1.85
X-0.3006Y-1.5173
X-0.2006Y-1.5173
X-0.1006Y-1.5173
X0.4Y0.0
X0.4Y-0.1
X0.0Y-1.75
X0.0Y-1.85
X0.0Y0.0
X0.0Y-0.1
T4
X0.0Y-0.525
X0.0Y-0.625
X0.0Y-0.725
X0.0Y-0.825
X0.0Y-0.925
X0.1Y-0.525
X0.1Y-0.625
X0.1Y-0.725
X0.1Y-0.825
X0.1Y-0.925
T0
M30
